<?xml version="1.0" encoding="utf-8"?>
<!-- Generator: Adobe Illustrator 27.5.0, SVG Export Plug-In . SVG Version: 6.00 Build 0)  -->
<svg version="1.1" xmlns="http://www.w3.org/2000/svg" xmlns:xlink="http://www.w3.org/1999/xlink" x="0px" y="0px"
	 viewBox="0 0 500 500" style="enable-background:new 0 0 500 500;" xml:space="preserve">
<g id="BACKGROUND">
	<rect style="fill:#FFFFFF;" width="500" height="500"/>
</g>
<g id="OBJECTS">
	<g>
		<g>
			<defs>
				<path id="SVGID_1_" d="M430.115,226.926c-19.354-23.981-25.883-55.555-19.736-85.752c1.455-7.149,1.437-14.526-0.283-21.832
					c-7.621-32.387-45.76-51.122-85.185-41.845c-6.479,1.525-12.589,3.712-18.241,6.446c-22.515,10.891-47.838,14.652-72.652,11.516
					c-18.659-2.358-38.111-1.48-57.583,3.102C91.202,118.617,37.9,201.992,57.382,284.785
					c19.155,81.404,99.866,129.393,179.797,115.639c24.216-4.167,49.03-1.34,71.835,7.808c19.825,7.952,41.907,10.112,63.896,4.938
					c59.21-13.933,95.32-75.755,80.653-138.084C449.257,256.788,441.054,240.481,430.115,226.926z"/>
			</defs>
			<clipPath id="SVGID_00000016758836465308099040000010343417739935622061_">
				<use xlink:href="#SVGID_1_"  style="overflow:visible;"/>
			</clipPath>
			<g style="clip-path:url(#SVGID_00000016758836465308099040000010343417739935622061_);">
				<g>
					<g>
						<rect x="52.851" y="102.558" style="fill:#D6EED8;" width="381.655" height="280.101"/>
						<rect x="52.851" y="102.558" style="fill:#CFE5CF;" width="381.655" height="9.044"/>
						<line style="fill:#CFE5CF;" x1="434.506" y1="111.602" x2="52.851" y2="111.602"/>
						<polygon style="fill:#CFE5CF;" points="136.513,340.318 136.513,102.558 52.851,102.558 52.851,382.658 434.507,382.658 
							434.507,340.318 						"/>
					</g>
					<polygon style="fill:#E8F9E9;" points="52.851,258.661 52.851,382.658 57.774,382.658 329.683,110.75 321.491,102.558 
						208.954,102.558 					"/>
					<polygon style="fill:#D6EED8;" points="328.831,111.602 329.683,110.75 321.491,102.558 208.954,102.558 199.909,111.602 					
						"/>
					<polygon style="fill:#D6EED8;" points="136.513,174.998 52.851,258.661 52.851,382.658 57.774,382.658 136.513,303.919 					
						"/>
					<polygon style="fill:#E8F9E9;" points="434.507,109.33 434.507,102.558 394.791,102.558 118.436,378.913 122.181,382.658 
						161.178,382.658 					"/>
					<polygon style="fill:#D6EED8;" points="394.791,102.558 385.747,111.602 432.235,111.602 434.507,109.33 434.507,102.558 					
						"/>
					<rect x="50.752" y="227.753" style="fill:#CFE5CF;" width="383.755" height="7.148"/>
					<g>
						<g>
							<rect x="158.564" y="106.216" style="fill:#FFFFFF;" width="11.006" height="278.669"/>
						</g>
						<g>
							<rect x="317.787" y="103.273" style="fill:#FFFFFF;" width="11.006" height="278.669"/>
						</g>
					</g>
					<g>
						<g>
							<rect x="158.564" y="227.234" style="fill:#BCD3BD;" width="11.006" height="13.475"/>
						</g>
						
							<line style="fill:none;stroke:#F0E1D3;stroke-width:11.0054;stroke-miterlimit:10;" x1="323.29" y1="227.092" x2="323.29" y2="240.567"/>
					</g>
					<g>
						<g>
							<rect x="158.564" y="103.415" style="fill:#BCD3BD;" width="11.006" height="13.475"/>
						</g>
						<g>
							<rect x="317.787" y="103.273" style="fill:#BCD3BD;" width="11.006" height="13.475"/>
						</g>
					</g>
					<g>
						<g>
							<rect x="40.967" y="218.308" style="fill:#FFFFFF;" width="402.324" height="11.006"/>
						</g>
					</g>
					<rect x="44.067" y="70.362" style="fill:#B3C4B4;" width="399.224" height="35.854"/>
					<rect x="44.067" y="70.362" style="fill:#F0E1D3;" width="92.446" height="35.854"/>
				</g>
				<g>
					<rect x="369.907" y="149.228" style="fill:#877D7B;" width="88.922" height="349.548"/>
					<g>
						<path style="fill:#B2AAA8;" d="M462.039,501.986h-95.342V146.018h95.342V501.986z M373.117,495.566h82.502V152.438h-82.502
							V495.566z"/>
					</g>
					<g>
						<rect x="369.907" y="246.868" style="fill:#B2AAA8;" width="88.922" height="6.42"/>
					</g>
					<rect x="378.171" y="167.408" style="fill:#B2AAA8;" width="24.885" height="79.182"/>
					<rect x="378.171" y="226.473" style="fill:#FFFFFF;" width="24.885" height="11.37"/>
					<rect x="409.474" y="167.408" style="fill:#B2AAA8;" width="24.885" height="79.182"/>
					<rect x="409.474" y="226.473" style="fill:#FFFFFF;" width="24.885" height="11.37"/>
					<g>
						<rect x="380.068" y="258.77" style="fill:#B2AAA8;" width="24.885" height="79.182"/>
						<rect x="380.068" y="270.142" style="fill:#FFFFFF;" width="24.885" height="11.37"/>
						<rect x="380.068" y="284.816" style="fill:#FFFFFF;" width="24.885" height="5.685"/>
					</g>
					<g>
						<rect x="411.443" y="272.578" style="fill:#B2AAA8;" width="24.885" height="79.182"/>
						<rect x="411.443" y="283.949" style="fill:#FFFFFF;" width="24.885" height="11.37"/>
						<rect x="411.443" y="298.624" style="fill:#FFFFFF;" width="24.885" height="5.685"/>
					</g>
				</g>
				<g>
					<g>
						<path style="fill:#177D74;" d="M131.772,424.859c-1.31-41.145-1.841-55.043-1.846-55.178c-0.428-3.553,0.36-6.569,2.349-8.896
							c3.733-4.366,10.319-4.658,10.597-4.669l0.066,1.789c-0.059,0.002-6.094,0.28-9.311,4.051c-1.645,1.928-2.29,4.48-1.92,7.584
							c0.012,0.208,0.542,14.113,1.853,55.263L131.772,424.859z"/>
					</g>
					<g>
						<g>
							<path style="fill:#177D74;" d="M36.848,199.118c0,0-14.625,7.826-19.974,26.801c0,0,21.08-28.462,48.186-17.958
								C65.06,207.961,49.296,190.953,36.848,199.118z"/>
						</g>
						<g>
							<path style="fill:#1C9585;" d="M32.944,201.785c0,0,30.592-14.323,36.261,40.832c3.461,33.677,18.489,56.746,53.157,64.45
								c0,0,70.876-65.784-34.667-111.857c0,0-12.413-4.773-21.999,0C65.695,195.21,44.307,191.951,32.944,201.785z"/>
						</g>
						<g>
							<path style="fill:#177D74;" d="M68.448,196.9c12.919,10.087,33.609,28.951,41.931,43.005
								c13.627,22.363,13.965,61.645,15.688,118.607c1.437,41.333,1.758,49.322,1.441,60.019
								c-1.755-13.645-2.057-23.888-4.063-59.907c-5.482-95.271-0.662-106.17-33.461-140.876
								C83.144,210.482,75.91,203.568,68.448,196.9z"/>
						</g>
					</g>
					<g>
						<g>
							<path style="fill:#177D74;" d="M235.802,263.519c0,0,10.015,6.829,12.417,21.034c0,0-13.091-22.327-33.607-16.814
								C214.613,267.739,227.397,256.614,235.802,263.519z"/>
						</g>
						<g>
							<path style="fill:#1C9585;" d="M238.431,265.762c0,0-21.107-12.798-29.538,26.833c-5.148,24.198-17.87,39.784-43.66,42.671
								c0,0-46.354-53.337,33.932-78.561c0,0,9.392-2.497,15.984,1.72C215.149,258.425,230.944,257.729,238.431,265.762z"/>
						</g>
						<g>
							<path style="fill:#177D74;" d="M213.016,259.438c-12.507,6.262-25.903,16.516-32.76,29.382
								c-16.627,32.744-18.031,84.329-24.107,111.692c0.391-9.412,5.66-57.793,10.582-79.423
								c4.825-20.971,11.325-31.352,12.002-33.062c0.816-1.493,1.685-2.961,2.679-4.336
								C188.825,273.134,201.279,264.629,213.016,259.438z"/>
						</g>
					</g>
					<g>
						<g>
							<path style="fill:#177D74;" d="M87.561,324.507c0,0,51.125,0.347,58.627,22.054c9.776-3.158,14.452-23.407-3.818-35.405
								C124.1,299.158,87.833,316.326,87.561,324.507z"/>
						</g>
						<g>
							<path style="fill:#1C9585;" d="M85.924,308.974c0,0-18.815-5.181-28.904,7.635c-15.679,19.917,0.546,73.026,21.269,73.079
								c14.301,0.037,23.806-37.376,30.268-48.538c8.998-15.543,16.634-28.277,33.813-29.996
								C142.37,311.156,117.011,295.34,85.924,308.974z"/>
						</g>
						<g>
							<path style="fill:#177D74;" d="M85.893,308.966c-0.165-0.044-1.446-0.376-3.436-0.652
								c-20.372,16.341-7.469,57.026-7.372,58.952c-0.942-7.107-6.809-28.635,1.06-47.039
								C77.552,316.483,82.186,310.47,85.893,308.966z"/>
						</g>
						<g>
							<path style="fill:#177D74;" d="M136.977,421.379l-1.757-0.332c9.558-50.774,10.993-76.534,11.007-76.789l0.073-0.311
								c1.785-4.082,1.949-7.837,0.491-11.163c-2.835-6.461-10.902-9.303-10.983-9.331l0.58-1.691
								c0.362,0.122,8.878,3.111,12.036,10.291c1.654,3.764,1.513,7.956-0.421,12.46
								C147.865,346.793,146.16,372.594,136.977,421.379z"/>
						</g>
					</g>
					<g>
						<path style="fill:#F5E1D3;" d="M154.661,456.091H124.84c-3.088,0-5.731-2.215-6.271-5.255l-9.797-55.12h61.958l-9.797,55.12
							C160.392,453.876,157.749,456.091,154.661,456.091z"/>
					</g>
					<g>
						<rect x="104.086" y="390.921" style="fill:#DFC5B6;" width="71.329" height="15.185"/>
					</g>
					<g>
						<g>
							<path style="fill:#177D74;" d="M175.893,368.396c0,0-35.235-10.378-44.902,2.994c-6.068-4.202-5.079-19.1,9.978-23.558
								C156.026,343.374,177.405,362.713,175.893,368.396z"/>
						</g>
						<g>
							<path style="fill:#1C9585;" d="M180.244,358.053c0,0,14.017,0.344,18.294,11.254c6.648,16.954-28.126,41.922-28.126,41.922
								s0.247-27.352-2.894-36.069c-6.539-18.148-15.091-22.578-26.55-27.327C140.969,347.832,161.695,342.22,180.244,358.053z"/>
						</g>
						<g>
							<path style="fill:#177D74;" d="M180.267,358.054c0.123,0.004,1.073,0.042,2.499,0.265
								c10.268,14.96-6.249,40.076-7.172,42.077c5.829-11.141,11.811-24.602,8.098-36.646
								C182.989,361.865,181.826,359.311,180.267,358.054z"/>
						</g>
					</g>
				</g>
				<g>
					<g>
						<polyline style="fill:none;stroke:#59504C;stroke-width:1.8342;stroke-miterlimit:10;" points="128.12,179.155 
							80.778,230.604 80.778,334.512 						"/>
						<polyline style="fill:none;stroke:#59504C;stroke-width:1.8342;stroke-miterlimit:10;" points="133.996,181.812 
							86.655,233.26 86.655,337.168 						"/>
						<g>
							<path style="fill:#F9DE58;" d="M126.138,192.758l15.854-15.854l-6.743-6.743c-2.843-2.843-7.453-2.843-10.296,0l-5.558,5.558
								c-2.843,2.843-2.843,7.453,0,10.296L126.138,192.758z"/>
							
								<rect x="119.605" y="176.986" transform="matrix(0.7071 -0.7071 0.7071 0.7071 -90.0825 145.6863)" style="fill:#59504C;" width="22.422" height="9.191"/>
							<path style="fill:#F9DE58;" d="M131.109,181.875c10.945-10.945,29.517-10.119,41.48,1.844l-39.636,39.636
								C120.99,211.391,120.164,192.82,131.109,181.875z"/>
						</g>
					</g>
					<g>
						<g>
							<path style="fill:#59504C;" d="M328.536,222.268l-83.001-6.656c-2.163-0.173-4.233,0.178-6.113,0.922l0.001-0.006
								l-0.176,0.079c-0.31,0.128-0.616,0.26-0.914,0.409l-13.838,6.195l6.262,74.887l104.62,49.939l5.75-112.13
								C341.126,228.775,335.646,222.839,328.536,222.268z"/>
							<path style="fill:#443B37;" d="M319.795,342.215l-110.369-8.851l5.105-95.773c1.085-9.881,9.83-17.109,19.739-16.314
								l73.712,5.911c10.329,0.828,17.931,10.027,16.8,20.327L319.795,342.215z"/>
						</g>
						<path style="fill:#0460D9;" d="M192.191,272.643c0,0,12.57-29.69,18.41-41.824c7.931-16.482,33.105-12.281,26.075,10.609
							c-7.03,22.891-28.213,67.648-34.767,66.454C188.957,305.521,192.191,272.643,192.191,272.643z"/>
						<path style="fill:#0460D9;" d="M221.048,306.281c0,0-3.216-13.332-6.182-34.906c-2.349-17.085,5.645-47.702,31.158-48.927
							c17.014-0.817,43.077-1.932,43.955,30.842c0.145,5.41-6.116,30.461-9.616,47.287c-1.876,9.018,1.146,15.76,1.146,15.76
							S239.488,315.194,221.048,306.281z"/>
						<path style="fill:#F57356;" d="M247.675,230.391c0,0,1.964-4.391,3.813-3.876c1.849,0.515,10.084,0.858,10.084,0.858
							s-8.378,0.72-9.765,1.904C250.42,230.461,247.16,231.398,247.675,230.391z"/>
						<path style="fill:#E69632;" d="M263.936,442.335l-8.445-5.12l-7.82,5.12h-45.763c1.138-45.57,5.337-115.189,20.286-126.441
							l-1.146-9.612c12.678,4.709,35.095,0.341,59.315-5.704l1.146,11.357c0,0,24.441-3.277,28.309,76.332
							c1.137,23.41,1.694,40.635,1.914,54.069H263.936z"/>
						<path style="fill:none;stroke:#FAC855;stroke-width:1.1316;stroke-linecap:round;stroke-miterlimit:10;" d="M281.509,311.934
							c0,0-14.001,6.216-29.656,8.287c-10.352,1.369-21.428,0.925-29.658-4.327"/>
						<path style="fill:none;stroke:#FAC855;stroke-width:1.1316;stroke-linecap:round;stroke-miterlimit:10;" d="M274.506,322.982
							c0,0,7.78,24.124,21.782,21.712c0,0,9.741,42.763,7.676,97.642"/>
						<path style="fill:none;stroke:#FAC855;stroke-width:1.1316;stroke-linecap:round;stroke-miterlimit:10;" d="M223.016,324.59
							c0,0-1.323,21.712-13.113,22.315"/>
						<circle style="fill:#F57356;" cx="227.285" cy="193.271" r="0.832"/>
						<circle style="fill:#F57356;" cx="225.58" cy="190.117" r="0.485"/>
						<path style="fill:none;stroke:#1C9585;stroke-width:0.9507;stroke-miterlimit:10;stroke-dasharray:4.0695;" d="
							M294.412,348.086c0,0,9.333,52.967,6.493,94.249"/>
						<g>
							<path style="fill:#0460D9;" d="M289.758,227.663c-16.331-11.198-32.9-0.876-22.598,20.74
								c10.302,21.616,43.492,60.267,49.8,58.127c4.01-1.36,10.846-1.183,10.846-5.953
								C327.806,285.81,300.864,235.278,289.758,227.663z"/>
						</g>
						<g>
							<path style="fill:#FF8F6A;" d="M275.522,222.967L275.522,222.967c-7.574-3.061-12.532-10.412-12.532-18.581v-14.647
								l-19.318,6.825l-1.237,18.73c-0.189,2.866-2.515,5.125-5.386,5.23l-10.232,0.376c0,0,2.97,25.166,18.501,25.166
								c17.771,0,31.867-22.964,31.867-22.964L275.522,222.967z"/>
							<path style="fill:#FF8F6A;" d="M258.594,204.607"/>
						</g>
						<path style="fill:#EA402F;" d="M278.853,166.661c0,14.676-11.897,26.573-26.573,26.573c-14.676,0-24.72,4.538-31.276-15.323
							c-11.678-35.374,16.6-37.823,31.276-37.823C266.956,140.088,278.853,151.985,278.853,166.661z"/>
						<path style="fill:#D82B23;" d="M240.729,186.012c-3.811-8-8.073-16.566-8.377-25.576c-0.009-0.256,0.022-0.486,0.071-0.703
							c-0.178-10.565,10.111-16.098,19.408-19.159c0.497-0.164,0.998-0.309,1.498-0.459c-0.348-0.014-0.697-0.027-1.048-0.027
							c-14.676,0-42.954,2.449-31.276,37.823c5.432,16.455,13.261,16.162,24.132,15.577
							C243.45,191.151,241.981,188.639,240.729,186.012z"/>
						<path style="fill:#FF8F6A;" d="M241.212,206.994L241.212,206.994c9.378-0.451,23.718-12.715,23.267-22.094
							c0,0,0.888-14.421-1.968-18.727c-4.96-7.477-23.761-7.311-31.163-5.629c-11.34,2.577-8.22,23.653-8.22,23.653
							C223.128,201.72,237.112,207.191,241.212,206.994z"/>
						<path style="fill:#F57356;" d="M261.781,193.196c0,0,0.048-1.212,0.06-3.052l-18.169,6.42l-1.237,18.73
							c-0.018,0.271-0.072,0.531-0.127,0.79c0.109,0.005,0.214,0.007,0.31,0.002h0C250.43,215.711,262.254,203.019,261.781,193.196z
							"/>
						<path style="fill:#FF8F6A;" d="M240.485,209.277L240.485,209.277c9.464-0.455,23.913-13.273,23.44-23.096
							c0,0,0.87-15.101-2.021-19.616c-5.02-7.839-23.993-7.7-31.46-5.952c-11.439,2.678-8.253,24.756-8.253,24.756
							C222.224,203.721,236.347,209.477,240.485,209.277z"/>
						<path style="fill:#FF926E;" d="M270.705,180.79c-0.003,4.035-3.595,7.502-8.431,7.753l-0.651-14.597
							C266.458,173.695,270.711,173.55,270.705,180.79z"/>
						<path style="fill:#F57356;" d="M265.654,178.503c-0.057-0.549,0.64-0.814,0.972-0.374c0.549,0.729,0.963,1.779,0.5,3.109
							c-0.655,1.882-2.081,3.756-2.82,3.024c-0.739-0.731,0.012-0.586,1.005-3.024C265.704,180.273,265.735,179.286,265.654,178.503
							z"/>
						<path style="fill:#EA402F;" d="M260.636,155.877c-20.558-11.344-28.213,3.856-28.213,3.856s0.024,3.497,11.305,9.049
							c3.088,1.52,6.825,2.601,10.408,3.366c3.698,0.79,6.639,3.584,7.487,7.269l0,0l0.141-0.929
							c0.415-2.733,2.842-4.693,5.603-4.555h0C267.367,173.932,267.099,159.443,260.636,155.877z"/>
						<path style="fill:none;stroke:#281923;stroke-width:0.9171;stroke-miterlimit:10;" d="M247.569,183.938
							c0-1.176-0.692-2.129-1.545-2.129c-0.853,0-1.545,0.953-1.545,2.129"/>
						<path style="fill:none;stroke:#281923;stroke-width:0.9171;stroke-miterlimit:10;" d="M230.456,183.938
							c0-1.176-0.692-2.129-1.545-2.129c-0.853,0-1.545,0.953-1.545,2.129"/>
						<path style="fill:none;stroke:#F57356;stroke-width:0.9507;stroke-miterlimit:10;" d="M249.751,178.069
							c0,0-5.418-3.015-10.435,0"/>
						<path style="fill:none;stroke:#F57356;stroke-width:0.9507;stroke-miterlimit:10;" d="M223.693,178.069
							c1.648-0.99,3.338-1.33,4.866-1.34c4.5-0.029,8.161,3.896,7.297,8.312c-0.066,0.339-0.159,0.681-0.282,1.025
							c-1.477,4.132-2.877,5.404,0.135,5.773"/>
						<path style="fill:none;stroke:#FFFFFF;stroke-width:0.8228;stroke-miterlimit:10;" d="M237.86,184.153
							c0,0-1.602-1.728-2.758-0.43"/>
						<path style="fill:#F57356;" d="M250.901,188.733c0,0.378,0.306,0.684,0.684,0.684c0.378,0,0.684-0.306,0.684-0.684
							c0-0.378-0.306-0.684-0.684-0.684C251.207,188.049,250.901,188.356,250.901,188.733z"/>
						<circle style="fill:#F57356;" cx="248.181" cy="190.603" r="0.294"/>
						<path style="fill:#F57356;" d="M251.584,192.44c0,0.331,0.269,0.6,0.6,0.6c0.331,0,0.6-0.269,0.6-0.6
							c0-0.331-0.269-0.6-0.6-0.6C251.853,191.84,251.584,192.108,251.584,192.44z"/>
						<circle style="fill:#F57356;" cx="255.098" cy="189.632" r="0.333"/>
						<path style="fill:#F57356;" d="M248.046,194.103c0,0.278,0.225,0.503,0.503,0.503c0.278,0,0.503-0.225,0.503-0.503
							c0-0.278-0.225-0.503-0.503-0.503C248.271,193.6,248.046,193.825,248.046,194.103z"/>
						<path style="fill:#F57356;" d="M244.334,189.183c0,0.248,0.201,0.449,0.45,0.449c0.248,0,0.449-0.201,0.449-0.449
							c0-0.248-0.201-0.45-0.449-0.45C244.536,188.733,244.334,188.935,244.334,189.183z"/>
						<path style="fill:#F57356;" d="M245.233,192.259c0-0.431-0.349-0.781-0.78-0.781c-0.431,0-0.781,0.349-0.781,0.781
							s0.35,0.781,0.781,0.781C244.884,193.04,245.233,192.69,245.233,192.259z"/>
						<circle style="fill:#F57356;" cx="229.245" cy="189.141" r="0.598"/>
						<polyline style="fill:none;stroke:#FFFFFF;stroke-width:0.8228;stroke-miterlimit:10;" points="254.388,183.297 
							255.963,183.297 262.99,175.81 						"/>
						
							<ellipse transform="matrix(0.9734 -0.2289 0.2289 0.9734 -35.6224 61.2436)" style="fill:none;stroke:#FFFFFF;stroke-width:0.8228;stroke-miterlimit:10;" cx="246.146" cy="184.153" rx="8.286" ry="8.286"/>
						
							<ellipse transform="matrix(0.3808 -0.9247 0.9247 0.3808 -29.4292 323.5014)" style="fill:none;stroke:#FFFFFF;stroke-width:0.8228;stroke-miterlimit:10;" cx="226.817" cy="183.723" rx="8.286" ry="8.285"/>
						<path style="fill:#FFA182;" d="M189.479,226.473c0,0-1.774-11.75-3.122-14.223c-1.391-2.552-7.422-7.652-8.281-7.568
							c-0.8,0.079-0.563,2.293-0.107,3.213c0.681,1.372,5.113,4.304,3.958,5.312l-6.902-5.686c0,0-1.399-1.297-0.188-2.483
							c0.747-0.731,2.74,1.001,2.968-0.21c0.41-2.189-4.539-3.018-5.87-1.734c-2.12,2.045,0.858,6.26,0.255,6.666
							c-0.73,0.491-8.18-9.91-9.132-8.954c-1.442,1.449,6.699,11.239,6.699,11.239c-0.735,0.727-8.008-8.975-9.107-7.741
							c-0.817,0.917,7.037,9.522,7.037,9.522c-0.705,0.662-5.518-5.447-5.913-4.29s2.655,5.716,5.007,7.399
							c2.806,2.008,12.546,5.748,12.546,5.748l2.312,6.181C181.64,228.864,187.359,230.002,189.479,226.473z"/>
						<path style="fill:#FFA182;" d="M335.377,230.607c0,0,2.359-12.921,3.707-15.394c1.391-2.552,7.422-7.652,8.281-7.568
							c0.8,0.079,0.563,2.293,0.107,3.213c-0.681,1.372-5.113,4.304-3.958,5.312l6.902-5.686c0,0,1.399-1.297,0.188-2.483
							c-0.747-0.731-2.74,1.001-2.968-0.21c-0.41-2.189,4.539-3.018,5.87-1.733c2.12,2.045-0.858,6.26-0.255,6.666
							c0.73,0.491,8.181-9.91,9.132-8.954c1.442,1.449-6.699,11.239-6.699,11.239c0.735,0.727,8.008-8.975,9.107-7.741
							c0.817,0.917-7.037,9.522-7.037,9.522c0.705,0.662,5.518-5.447,5.913-4.29c0.396,1.157-2.655,5.716-5.007,7.399
							c-2.806,2.008-12.546,5.748-12.546,5.748l-2.154,7.182C343.959,232.829,338.002,234.141,335.377,230.607z"/>
						<path style="fill:#0460D9;" d="M210.911,294.047c1.55-11.193-5.971-28.304-5.971-28.304l-14.936-40.882
							c-3.038-1.258-9.483,0.161-12.618,2.945l0.042,5.739c-0.133,3.275,0.053,7.826,0.48,13.089l0.001,0.018l0.001,0.001
							c1.341,16.532,5.027,39.974,8.489,52.259C191.976,318.694,208.632,310.505,210.911,294.047z"/>
						
							<line style="fill:none;stroke:#FAC855;stroke-width:1.1316;stroke-miterlimit:10;" x1="253.164" y1="319.888" x2="251.543" y2="307.63"/>
						<path style="fill:#0460D9;" d="M331.298,299.137c7.001-8.869,8.496-24.642,8.496-24.642l7.842-42.026
							c0.273-4.926-11.76-7.593-13.728-4.669c0,0-17.78,50.334-21.01,62.682C307.695,310.365,321.003,312.178,331.298,299.137z"/>
						<path style="fill:#EA402F;" d="M279.072,134.035c-2.226,6.889-12.867,20.73-19.757,18.503
							c-6.889-2.226-7.418-19.676-5.191-26.566c2.226-6.889,9.616-10.669,16.505-8.443
							C277.519,119.756,281.299,127.145,279.072,134.035z"/>
						<g>
							<path style="fill:#044BD9;" d="M218.532,281.14c1.51,1.08,3.16,1.941,4.88,2.6c1.713,0.674,3.505,1.137,5.323,1.35
								c1.816,0.209,3.66,0.225,5.46-0.087c0.911-0.09,1.782-0.387,2.671-0.585c0.911-0.272,1.849-0.45,2.795-0.539
								c1.895-0.163,3.806,0.052,5.627,0.547c0.923,0.241,1.786,0.6,2.658,0.861c0.879,0.268,1.767,0.507,2.663,0.718
								c3.592,0.826,7.304,1.106,11.014,1.08c-3.698,0.318-7.457,0.177-11.127-0.55c-0.918-0.178-1.829-0.394-2.726-0.665
								c-0.909-0.262-1.769-0.608-2.646-0.824c-1.762-0.458-3.597-0.638-5.4-0.465c-0.902,0.075-1.797,0.234-2.667,0.483
								c-0.922,0.196-1.824,0.489-2.767,0.574c-1.862,0.29-3.772,0.288-5.627-0.012C224.952,285.052,221.395,283.511,218.532,281.14
								z"/>
						</g>
						<path style="fill:#F57356;" d="M237.901,198.416c0,1.023-0.429,1.852-0.958,1.852c-0.529,0-0.958-0.829-0.958-1.852
							c0-1.023,0.429-1.852,0.958-1.852C237.471,196.564,237.901,197.393,237.901,198.416z"/>
						<path style="fill:#F9DE58;" d="M266.886,219.483c-8.74,4.985-19.463,4.985-28.203,0l3.097-7.603
							c6.283,3.584,14.859,4.237,21.142,0.653C264.243,214.85,265.565,217.166,266.886,219.483z"/>
						<path style="fill:#F9DE58;" d="M269.507,216.635c4.524,2.972,5.135,10.035,5.135,10.035s-6.724,2.243-11.248-0.729
							c-4.524-2.972-5.135-10.035-5.135-10.035S264.983,213.663,269.507,216.635z"/>
						<path style="fill:#E2A937;" d="M272.833,220.542c-0.76-1.481-1.824-2.92-3.327-3.908c-3.212-2.11-7.521-1.592-9.757-1.114
							c-0.085,0.101-0.14,0.169-0.14,0.169s4.388,5.567,9.801,5.567C270.616,221.257,271.766,220.972,272.833,220.542z"/>
						
							<line style="fill:none;stroke:#F0E1D3;stroke-width:1.3757;stroke-linecap:round;stroke-miterlimit:10;" x1="264.61" y1="186.636" x2="264.61" y2="196.564"/>
						<ellipse style="fill:#0460D9;" cx="264.61" cy="196.564" rx="2.39" ry="3.877"/>
						<path style="fill:#F9DE58;" d="M265.148,206.866c4.875-2.352,11.247,0.755,11.247,0.755s-1.533,6.921-6.409,9.273
							c-4.875,2.352-11.247-0.755-11.247-0.755S260.272,209.218,265.148,206.866z"/>
					</g>
					<rect x="85.893" y="343.664" style="fill:#59504C;" width="321.574" height="161.776"/>
					<rect x="85.893" y="343.664" style="fill:#443B37;" width="321.574" height="14.096"/>
					<rect x="78.43" y="331.867" style="fill:#FFFFFF;" width="336.912" height="15.303"/>
					<polygon style="fill:#443B37;" points="137.963,379.183 212.915,379.183 212.915,371.572 126.476,371.572 126.476,492.718 
						137.963,492.718 					"/>
					<polygon style="fill:#443B37;" points="291.557,379.183 366.509,379.183 366.509,371.572 280.071,371.572 280.071,492.718 
						291.557,492.718 					"/>
					<path style="fill:#443B37;" d="M279.711,331.867H162.319v-7.277h106.86C273.862,324.59,278.055,327.488,279.711,331.867
						L279.711,331.867z"/>
					<path style="fill:#FFFFFF;" d="M225.171,268.423c-1.232-4.285-5.152-7.238-9.611-7.238h-88.266
						c-2.246,0-4.209,0.964-5.575,2.458l-3.784,3.805l1.961-0.284c-0.253,1.17-0.237,2.423,0.124,3.679l118.662,61.024h4.233
						L225.171,268.423z"/>
					<path style="fill:#D8D8D8;" d="M238.683,331.867H132.837l-16.485-57.355c-1.39-4.837,2.24-9.659,7.273-9.659h88.266
						c4.459,0,8.379,2.952,9.611,7.238L238.683,331.867z"/>
					<rect x="78.572" y="324.808" style="fill:#443B37;" width="23.49" height="7.06"/>
					<path style="fill:#B2ADAA;" d="M183.492,298.836c-2.689-6.473-8.655-10.7-13.326-9.441c-4.671,1.259-6.277,7.528-3.588,14.001
						c2.689,6.473,8.656,10.7,13.326,9.441C184.575,311.578,186.182,305.309,183.492,298.836z"/>
				</g>
				<g>
					<path style="fill:#177D74;" d="M444.582,278.785c-4.302,13.681-8.098,27.526-11.612,41.447
						c-3.495,13.926-6.626,27.953-9.393,42.069c-2.707,14.128-4.945,28.36-6.706,42.689c-1.598,14.35-2.604,28.804-2.662,43.371
						l8.509-0.25c-0.639-14.107-0.363-28.323,0.511-42.539c1.036-14.207,2.552-28.411,4.545-42.568
						c2.053-14.148,4.477-28.258,7.272-42.304C437.86,306.658,440.963,292.66,444.582,278.785z"/>
					<path style="fill:none;stroke:#177D74;stroke-width:4.1825;stroke-miterlimit:10;" d="M383.34,376.93
						c0,0,23.085,22.267,27.428,67.162c2.169,22.422-1.249,43.121-5.215,58.226"/>
					<path style="fill:none;stroke:#177D74;stroke-width:3.1369;stroke-miterlimit:10;" d="M347.281,316.213
						c0,0,22.366,29.267,25.225,64.594"/>
					<path style="fill:none;stroke:#177D74;stroke-width:4.1825;stroke-miterlimit:10;" d="M398.881,312.168
						c0,0-28.664,73.559,0,181.653"/>
					<path style="fill:#1C9585;" d="M347.281,316.213c0,0,10.909-0.414,14.625-10.534c0,0-7.337,2.001-7.633-3.376
						c-0.296-5.377-1.011-11.955-11.138-13.16c-10.127-1.206-18.858-0.808-22.206-3.217c0,0,14.747,9.394,15.112,13.771
						c0.366,4.377,0.134,7.709-1.152,6.95c-1.286-0.759-0.382-6.555-6.038-9.458c-5.657-2.904-14.187-2.994-14.187-2.994
						s10.832,3.096,12.422,6.722c1.589,3.626-1.696,2.728-4.199,0.21c-2.503-2.517-11.788-11.03-25.834-8.825l-9.003,1.885
						l-2.138,1.86c0,0,15.712-2.089,20.261-0.099c4.549,1.99,10.314,5.738,8.532,7.288c-1.781,1.55-10.578-6.761-15.11-6.574
						c-4.533,0.187-16.388-2.645-28.47,12.25c0,0,6.062,9.125,10.092,13.757c4.03,4.632,15.837,0.933,20.369,0.746
						c4.533-0.187,16.179,5.643,19.053,2.83c2.874-2.813,12.036-14.229,16.43-12.417c4.393,1.812-11.511,9.076-11.511,9.076
						s4.981-1.83,8.972,0.958c3.991,2.788,16.605,4.334,23.329-0.89C357.859,322.974,357.494,318.596,347.281,316.213z"/>
					<g>
						<path style="fill:#177D74;" d="M352.534,315.01c-2.488,0.955-4.577,1.157-5.115,1.194
							c-18.942-7.066-47.983-8.237-67.214-7.241C301.129,306.998,332.86,307.098,352.534,315.01z"/>
					</g>
				</g>
			</g>
		</g>
		<g>
			<path style="fill:#177D74;" d="M402.503,307.575c0,0-5.298-19.265,6.261-21.914c11.559-2.649,21.914-1.204,32.51,10.957
				c0,0-18.061-3.251-21.432,2.047c-3.371,5.298-0.723,6.02,2.89,5.298c3.612-0.722,20.71-9.151,26.971-0.722
				c6.261,8.429,6.984,11.8,6.984,11.8s-13.726-5.78-20.228-5.78c-6.502,0-13.486,0.722-13.726,2.408
				c-0.241,1.686,6.135,2.774,16.375,1.686c10.24-1.088,19.988,4.335,21.673,8.428c1.686,4.094,1.927,13.967,1.927,13.967
				s-11.078-12.281-21.914-14.931c-10.837-2.649-14.931-3.131-15.412-0.722c-0.482,2.408,8.91,3.853,20.469,9.151
				c11.559,5.298,20.228,9.633,18.302,19.024c-1.927,9.392-6.743,17.82-6.743,17.82s-2.649-10.596-9.151-14.69
				c-6.502-4.094-15.873-8.91-15.402-6.02c0.471,2.89,19.977,20.71,19.977,20.71s-8.91,7.947-10.114,10.837
				c0,0-12.041-2.649-13.726-4.094c-1.686-1.445-3.131-22.396-7.465-22.396c-4.335,0,3.612,19.988,3.612,19.988
				s-8.669-0.482-11.078-7.947c-2.408-7.465,2.89-21.914,0.723-23.841c-2.167-1.927-7.224,5.78-5.298,16.616
				c1.927,10.837,4.575,11.8,4.575,11.8s-16.375-9.633-16.616-14.449c-0.241-4.816,5.298-17.014,8.91-21.872
				c3.612-4.858-2.89-7.748-4.816-3.895c-1.926,3.853-8.91,16.538-8.669,22.597c0,0-11.077-5.259-9.873-11.761
				c1.204-6.502,13.967-14.93,13.486-18.543c-0.482-3.612-10.837,4.178-14.449,11.601c-3.612,7.423-3.371,9.831-3.371,9.831
				s-7.224-16.375-6.02-19.988c1.204-3.612,17.339-6.984,20.228-8.91c2.89-1.927-6.502-6.984-11.8-3.131s-6.984,7.224-6.984,7.224
				s-2.167-16.857,2.408-19.506c4.576-2.649,13.967,0.482,18.302,5.057C399.131,305.889,403.464,312.813,402.503,307.575z"/>
			<path style="fill:#1C9585;" d="M410.968,320.486l-11.216-13.357l0.008-0.006c2.033,2.398,3.31,3.543,2.742,0.452
				c0,0-0.051-0.185-0.13-0.514l9.871,12.378l5.434,6.815c1.786,2.277,3.701,4.486,5.298,6.997c1.604,2.472,2.937,5.078,4.206,7.704
				c1.279,2.623,2.409,5.309,3.526,7.997c2.183,5.396,4.174,10.864,5.946,16.4c-1.958-5.472-4.131-10.865-6.488-16.168
				c-1.203-2.639-2.418-5.275-3.774-7.833c-1.345-2.56-2.753-5.094-4.396-7.446c-1.609-2.341-3.564-4.494-5.419-6.741
				L410.968,320.486z"/>
			<path style="fill:#1C9585;" d="M384.696,364.57c0,0,4.854-17.862,21.551-13.397c16.697,4.466,10.484,22.91,10.484,22.91
				s-7.184-8.252-12.135-7.378c-4.176,0.737-5.145,5.048-0.291,6.213c4.854,1.165,15.144,5.242,16.891,13.785
				c1.747,8.543-0.24,13.783-0.24,13.783s-12.675-19.996-17.382-17.666c-4.706,2.33,12.185,17.668,13.544,22.91
				c1.359,5.242-4.567,18.056-13.544,25.629c-8.978,7.572-12.084,10.678-13.443,14.367c0,0-1.741-27.253-2.912-33.201
				c-1.663-8.446-7.96-17.862-10.679-15.727c-2.718,2.136,4.854,13.979,3.689,27.376c-1.165,13.397-4.282,23.299-4.282,23.299
				s-7.173,0.971-9.697,5.825c0,0,4.951-24.075,1.553-38.831c-1.754-7.618-3.592-9.708-5.825-8.737
				c-2.436,1.059-1.565,9.892-0.755,15.459c0.83,5.698,0.854,11.493-0.059,17.178c-0.858,5.344-2.574,10.97-5.982,13.766
				c0,0-17.086-5.533-30.094,0.388c0,0-6.99-12.814-7.184-16.115c0,0,16.68-13.626,24.172-20.192c8.64-7.572,2.483-9.54-0.874-7.96
				c-3.301,1.553-21.066,11.843-19.804,23.007c0,0-8.737-9.999-6.795-16.794c1.941-6.796,22.328-16.309,29.9-18.056
				c7.572-1.747,12.375-6.361,8.543-7.766c-11.649-4.271-34.369,10.679-38.736,19.415c0,0-4.758-16.115,0-26.793
				c4.758-10.678,5.729-15.338,5.729-15.338s14.468,7.844,37.666,0.971c2.621-0.777,4.465-4.563-0.971-5.922
				c-5.436-1.359-26.988-2.233-33.395,0.68c0,0,6.407-12.62,13.202-13.397c6.796-0.777,20.192,7.572,23.687,5.048
				c3.495-2.524-7.378-6.704-13.785-5.099c0,0,1.359-7.715,12.426-8.298c11.067-0.582,12.038-1.165,13.202-2.33
				c1.165-1.165,12.426,1.747,9.514,19.027c-0.795,4.715-1.341,7.579-0.693,8.933C382.755,369.424,384.696,364.57,384.696,364.57z"
				/>
			<path style="fill:#1C9585;" d="M384.696,364.57c0,0,4.854-17.862,21.551-13.397c16.697,4.466,10.484,22.91,10.484,22.91
				s-7.184-8.252-12.135-7.378c-4.176,0.737-5.145,5.048-0.291,6.213c4.854,1.165,15.144,5.242,16.891,13.785
				c1.747,8.543-0.24,13.783-0.24,13.783s-12.675-19.996-17.382-17.666c-4.706,2.33,12.185,17.668,13.544,22.91
				c1.359,5.242-4.567,18.056-13.544,25.629c-8.978,7.572-12.084,10.678-13.443,14.367c0,0-1.741-27.253-2.912-33.201
				c-1.663-8.446-7.96-17.862-10.679-15.727c-2.718,2.136,4.854,13.979,3.689,27.376c-1.165,13.397-4.282,23.299-4.282,23.299
				s-7.173,0.971-9.697,5.825c0,0,4.951-24.075,1.553-38.831c-1.754-7.618-3.592-9.708-5.825-8.737
				c-2.436,1.059-1.565,9.892-0.755,15.459c0.83,5.698,0.854,11.493-0.059,17.178c-0.858,5.344-2.574,10.97-5.982,13.766
				c0,0-17.086-5.533-30.094,0.388c0,0-6.99-12.814-7.184-16.115c0,0,16.68-13.626,24.172-20.192c8.64-7.572,2.483-9.54-0.874-7.96
				c-3.301,1.553-21.066,11.843-19.804,23.007c0,0-8.737-9.999-6.795-16.794c1.941-6.796,22.328-16.309,29.9-18.056
				c7.572-1.747,12.375-6.361,8.543-7.766c-11.649-4.271-34.369,10.679-38.736,19.415c0,0-4.758-16.115,0-26.793
				c4.758-10.678,5.729-15.338,5.729-15.338s14.468,7.844,37.666,0.971c2.621-0.777,4.465-4.563-0.971-5.922
				c-5.436-1.359-26.988-2.233-33.395,0.68c0,0,6.407-12.62,13.202-13.397c6.796-0.777,20.192,7.572,23.687,5.048
				c3.495-2.524-7.378-6.704-13.785-5.099c0,0,1.359-7.715,12.426-8.298c11.067-0.582,12.038-1.165,13.202-2.33
				c1.165-1.165,12.426,1.747,9.514,19.027c-0.795,4.715-1.341,7.579-0.693,8.933C382.755,369.424,384.696,364.57,384.696,364.57z"
				/>
			<path style="fill:#1C9585;" d="M384.696,364.57c0,0,4.854-17.862,21.551-13.397c16.697,4.466,10.484,22.91,10.484,22.91
				s-7.184-8.252-12.135-7.378c-4.176,0.737-5.145,5.048-0.291,6.213c4.854,1.165,15.144,5.242,16.891,13.785
				c1.747,8.543-0.24,13.783-0.24,13.783s-12.675-19.996-17.382-17.666c-4.706,2.33,12.185,17.668,13.544,22.91
				c1.359,5.242-4.567,18.056-13.544,25.629c-8.978,7.572-12.084,10.678-13.443,14.367c0,0-1.741-27.253-2.912-33.201
				c-1.663-8.446-7.96-17.862-10.679-15.727c-2.718,2.136,4.854,13.979,3.689,27.376c-1.165,13.397-4.282,23.299-4.282,23.299
				s-7.173,0.971-9.697,5.825c0,0,4.951-24.075,1.553-38.831c-1.754-7.618-3.592-9.708-5.825-8.737
				c-2.436,1.059-1.565,9.892-0.755,15.459c0.83,5.698,0.854,11.493-0.059,17.178c-0.858,5.344-2.574,10.97-5.982,13.766
				c0,0-17.086-5.533-30.094,0.388c0,0-6.99-12.814-7.184-16.115c0,0,16.68-13.626,24.172-20.192c8.64-7.572,2.483-9.54-0.874-7.96
				c-3.301,1.553-21.066,11.843-19.804,23.007c0,0-8.737-9.999-6.795-16.794c1.941-6.796,22.328-16.309,29.9-18.056
				c7.572-1.747,12.375-6.361,8.543-7.766c-11.649-4.271-34.369,10.679-38.736,19.415c0,0-4.758-16.115,0-26.793
				c4.758-10.678,5.729-15.338,5.729-15.338s14.468,7.844,37.666,0.971c2.621-0.777,4.465-4.563-0.971-5.922
				c-5.436-1.359-26.988-2.233-33.395,0.68c0,0,6.407-12.62,13.202-13.397c6.796-0.777,20.192,7.572,23.687,5.048
				c3.495-2.524-7.378-6.704-13.785-5.099c0,0,1.359-7.715,12.426-8.298c11.067-0.582,12.038-1.165,13.202-2.33
				c1.165-1.165,12.426,1.747,9.514,19.027c-0.795,4.715-1.341,7.579-0.693,8.933C382.755,369.424,384.696,364.57,384.696,364.57z"
				/>
			<path style="fill:#177D74;" d="M350.271,421.066c3.423-6.443,6.71-12.962,9.551-19.659c2.194-5.015,7.725-24.495,20.803-37.12
				c0.03,0.508,0.114,0.928,0.271,1.256c0.865,1.807,1.745,1.714,2.442,1.105l0.001,0.002
				c-13.796,11.624-19.877,30.804-22.086,35.398c-5.628,12.047-14.451,26.857-21.886,38.013
				C343.199,433.841,346.822,427.496,350.271,421.066z"/>
		</g>
		<g>
			<g>
				<path style="fill:#177D74;" d="M36.848,199.118c0,0-14.625,7.826-19.974,26.801c0,0,21.08-28.462,48.186-17.958
					C65.06,207.961,49.296,190.953,36.848,199.118z"/>
			</g>
			<g>
				<path style="fill:#1C9585;" d="M77.639,193.153c-3.778-0.237-8.09,0.137-11.945,2.057c0,0-21.388-3.258-32.751,6.575
					c0,0,30.592-14.323,36.261,40.832c1.229,11.959,3.927,22.572,8.435,31.643V193.153z"/>
			</g>
			<g>
				<path style="fill:#177D74;" d="M77.639,204.473c-3.288-2.838-6.419-5.408-9.191-7.573c3.111,2.78,6.171,5.615,9.191,8.489
					V204.473z"/>
			</g>
		</g>
	</g>
</g>
</svg>
