<?xml version="1.0" encoding="utf-8"?>
<!-- Generator: Adobe Illustrator 27.5.0, SVG Export Plug-In . SVG Version: 6.00 Build 0)  -->
<svg version="1.1" id="Layer_1" xmlns="http://www.w3.org/2000/svg" xmlns:xlink="http://www.w3.org/1999/xlink" x="0px" y="0px"
	 viewBox="0 0 2932 2000" style="enable-background:new 0 0 2932 2000;" xml:space="preserve">
<rect style="fill:#FFFFFF;" width="2932" height="2000"/>
<path style="fill:#CAF0FF;" d="M2713.581,1529.373c-25.177-175.047,70.718-359.442,4.069-525.315
	c-21.167-52.677-57.447-99.051-87.015-148.294c-44.638-74.342-74.216-156.083-86.821-239.945
	c-8.248-54.863-9.332-110.727-23.069-164.679c-38.107-149.665-180.851-272.902-347.649-300.143
	c-134.428-21.954-278.052,6.149-395.269,69.767c-526.489,285.746-775.429,150.579-959.123,249.168
	c-115.137,61.794-179.381,176.697-222.187,291.566c-42.805,114.869-33.723,365.034-132.764,446.541
	c-26.548,21.848-56.804,39.995-81.415,63.633c-80.995,77.792-84.633,202.885-37.526,300.951
	c40.7,84.729,133.332,197.42,226.893,247.288c5.038,2.686,23.581,7.734,38.768,7.868c200.481,1.769,1615.106,5.045,1930.829,2.717
	c49.7-0.367,103.342-1.907,142.679-29.438c41.932-29.349,56.495-81.548,54.384-129.525
	C2736.252,1623.556,2720.43,1576.985,2713.581,1529.373z"/>
<g>
	<g>
		<g>
			<polygon style="fill:#70C0FD;" points="2690.323,463.634 2577.262,463.634 2468.854,463.634 2403.012,732.529 2577.262,732.529 
				2756.166,732.529 			"/>
		</g>
		<g>
			<rect x="2566.4" y="552.289" style="fill:#70C0FD;" width="26.377" height="894.606"/>
		</g>
	</g>
</g>
<g>
	<path style="fill:#07085B;" d="M2801.772,1166.597c-139.902,286.279-531.348,570.954-531.348,570.954
		s329.177-63.769,470.24-296.695l-65.256-42.881c0,0,48.015-0.668,88.322-0.48
		C2793.649,1332.615,2809.228,1256.242,2801.772,1166.597z"/>
	<path style="fill:#55769F;" d="M2369.196,1326.504c27.076,8.841,67.187,22.437,67.187,22.437l-42.594-48.724
		c39.109-38.04,83.749-65.443,128.813-85.143c21.973,25.45,47.617,53.776,47.617,53.776l-3.373-70.767
		c122.112-40.801,234.927-31.487,234.927-31.487c-139.901,286.28-531.348,570.954-531.348,570.954
		C2250.544,1540.799,2296.796,1411.447,2369.196,1326.504z"/>
</g>
<g>
	<path style="fill:#FF5B7E;" d="M2871,1576.81c-53.109-23.78-105.459-33.97-155.336-34.966
		c-12.941,18.551-28.91,40.443-28.91,40.443l-5.418-39.698c-189.968,11.876-336.104,148.536-336.104,148.536
		c115.421,53.807,210.521,61.943,286.588,47.989c3.297-14.439,7.869-35.943,7.869-35.943l16.38,30.621
		c36.23-9.318,67.665-23.593,94.465-39.81c-8.646-15.868-17.882-34.075-17.882-34.075l42.738,17.618
		C2840.221,1630.723,2871,1576.81,2871,1576.81z"/>
	<path style="fill:#E03268;" d="M2631.82,1739.114c3.297-14.439,7.869-35.943,7.869-35.943l16.38,30.621
		c36.23-9.318,67.665-23.593,94.465-39.81c-8.646-15.868-17.882-34.075-17.882-34.075l42.738,17.618
		c64.83-46.803,95.609-100.716,95.609-100.716c-222.637-0.772-525.768,114.315-525.768,114.315
		C2460.653,1744.932,2555.754,1753.068,2631.82,1739.114z"/>
</g>
<g>
	<path style="fill:#07085B;" d="M656.947,1545.267c0,0,142.178-278.562,40.951-310.267c0,0-20.932-23.966-73.772,81.563
		c0,0-39.643,20.238-49.56-27.85c-9.916-48.088,47.225-132.481-3.056-167.693c-50.281-35.212-61.111,43.899-89.71,63.056
		s-44.04-176.313-90.021-190.39c-45.979-14.077-45.765,63.952-68.315,76.569c-22.55,12.617-128.277-201.507-236.162-141.874
		c-107.885,59.634,35.9,123.591,98.899,167.22c63,43.629-54.831,32.134-56.291,100.664c-1.46,68.529,192.38-16.626,184.15,51.081
		c-8.23,67.706-71.923,39.756-75.188,89.879c-5.277,81.036,183.343-25.403,187.211,29.225c3.084,43.563-73.958,26.575-76.529,61.021
		S491.289,1561.503,656.947,1545.267z"/>
	<path style="opacity:0.1;fill:#FFFFFF;" d="M704.846,1237.744c-0.917-0.444-1.863-0.861-2.83-1.256
		c-1.838,10.827-4.333,22.725-7.719,35.229c-12.438,45.932-39.796,109.58-99.407,152.893
		c-22.106-33.245-48.382-67.564-78.717-102.785c1.964-100.57,27.791-160.6,49.112-193.249c1.848-2.829,3.693-5.491,5.527-8.024
		c-0.853-0.583-1.693-1.131-2.523-1.649c-1.781,2.47-3.575,5.06-5.375,7.808c-21.363,32.625-47.185,92.276-49.668,191.718
		c-0.128-0.147-0.253-0.294-0.38-0.441c-31.301-36.06-66.859-73.097-106.328-110.783c-1.283-4.229-13.316-44.603-20.679-94.135
		c-5.287-35.575-8.886-81.375-1.813-120.94c-1.034-0.093-2.039-0.128-3.02-0.117c-7.044,39.892-3.444,85.812,1.861,121.498
		c6.164,41.467,15.594,76.564,19.31,89.563c-30.176-28.643-62.592-57.651-97.12-86.888
		c-96.288-81.53-186.625-145.749-233.503-177.809c-0.864,0.642-1.696,1.284-2.508,1.926
		c46.573,31.822,137.305,96.244,234.07,178.177c16.272,13.778,33.143,28.427,50.316,43.816c-11.461-0.215-45.58-0.319-89.131,4.471
		c-36.693,4.036-85.855,12.267-134.392,29.005c-0.005,0.165-0.014,0.328-0.018,0.495c-0.02,0.918,0.003,1.803,0.053,2.667
		c48.564-16.862,97.879-25.128,134.631-29.173c49.84-5.486,87.244-4.537,92.295-4.374c38.007,34.2,77.396,71.99,115.025,112.069
		c-71.737,2.174-180.034,43.85-233.033,66.081c0.079,1.076,0.199,2.11,0.361,3.105c53.175-22.349,163.861-65.073,235.433-66.245
		c53.395,57.163,103.047,118.886,139.905,181.404c-57.405,18.734-131.368,3.466-183.576-12.782
		c-32.294-10.051-60.419-21.681-78.897-29.96c-0.503,0.855-0.935,1.76-1.3,2.709c18.56,8.318,46.815,20.006,79.256,30.105
		c52.832,16.447,127.821,31.885,186.085,12.582c15.723,26.945,29.042,54.027,39.237,80.947c0.521-0.049,1.039-0.085,1.56-0.136
		c0,0,0.318-0.622,0.911-1.809c-14.086-36.96-34.586-75.843-61.297-116.333c3.888-2.821,7.693-5.754,11.404-8.811
		c21.627-17.806,40.22-39.568,55.401-64.869c14.421-24.035,25.812-51.298,33.856-81.031
		C700.545,1260.133,703.01,1248.436,704.846,1237.744z"/>
</g>
<path style="fill:#FF5B7E;" d="M762.352,1618.683c0,0-129.578-145.103-371.399-134.899l42.014,57.837l-67.651-52.968
	c0,0-140.202,11.821-235.693,46.179c0,0,205.485,107.883,257.344,117.308l69.18-20.662l-37.415,51.769
	c0,0,113.066,62.658,229.257,49.647C764.179,1719.883,762.352,1618.683,762.352,1618.683z"/>
<g>
	<path style="fill:#282828;" d="M1761.437,857.877c0,0,60.052-5.387,64.86,3.098c4.808,8.485,5.388,22.187,5.388,22.187h-97.593
		c0,0-10.182-10.59-9.334-11.722C1725.607,870.31,1761.437,857.877,1761.437,857.877z"/>
	<path style="fill:#02CCC0;" d="M2464.547,1125.03c-4.634-82.573-61.895-152.789-141.862-173.882
		c-143.217-37.776-401.712-83.183-780.167-65.099c-378.455-18.083-636.95,27.323-780.167,65.099
		c-79.968,21.093-137.228,91.309-141.862,173.882l-9.179,163.546l58.864,95.709l67.88,220.612l649.113,42.659l4.394,20.131
		l150.957-9.921l150.957,9.921l4.394-20.131l649.113-42.659l67.881-220.612l58.863-95.709L2464.547,1125.03z"/>
	<path style="fill:#F9B5B2;" d="M1265.4,938.234c-0.909-3.545-3.626-6.345-7.143-7.359l-3.403-0.983
		c-10.671-3.081-21.783-4.184-32.877-3.633c-4.495,0.224-9.156,0.049-12.479-1.101c-5.011-1.735-26.543-12.596-43.94-21.515
		c-8.534-2.784-20.602-6.647-31.484-9.868c-8.274-1.331-10.144,1.393-8.881,5.416c0.939,2.99,3.353,5.346,6.268,6.501
		c9.15,3.628,14.602,8.983,18.566,13.912c2.821,3.504,5.909,6.762,9.353,9.656c4.851,4.079,10.125,8.719,15.02,13.109l-0.002-0.001
		l29.966,44.206l-7.054,26.097l50.604,4.116c2.588-23.932,9.882-55.421,11.13-57.353
		C1263.456,952.604,1267.02,944.542,1265.4,938.234z"/>
	<path style="fill:#F9B5B2;" d="M823.728,1134.526c-3.583-0.747-7.294,0.457-9.755,3.166l-2.383,2.621
		c-7.47,8.22-13.36,17.706-17.757,27.907c-1.781,4.133-3.993,8.238-6.49,10.714c-3.767,3.732-23.01,18.269-38.685,29.951
		c-6.262,6.432-15.05,15.56-22.74,23.907c-4.843,6.839-3.223,9.718,0.945,10.358c3.098,0.476,6.276-0.651,8.599-2.759
		c7.291-6.612,14.502-9.145,20.673-10.529c4.389-0.986,8.674-2.322,12.791-4.137c5.799-2.556,12.29-5.243,18.389-7.699h-0.002
		l52.89-7.402l20.313,17.838l26.008-43.604c-20.338-12.875-45.385-33.307-46.568-35.278
		C835.768,1142.607,830.104,1135.854,823.728,1134.526z"/>
	<path style="fill:#FFC0BB;" d="M1919.709,1096.237l20.364-17.724l54.22,17.724l-2.814,47.304c0,0-11.054,15.675-14.071,34.153
		c-3.017,18.479-32.054-0.377-34.694-4.525c-2.64-4.148-38.465-44.499-37.711-45.631L1919.709,1096.237L1919.709,1096.237z"/>
	<g>
		<g>
			<g>
				<polygon style="fill:#3D3A55;" points="2337.072,1829.074 2351.959,1829.074 2314.83,1709.7 2300.849,1712.612 				"/>
			</g>
		</g>
	</g>
	<g>
		<g>
			<g>
				<polygon style="fill:#3D3A55;" points="745.336,1829.074 730.449,1829.074 767.578,1709.7 781.56,1712.612 				"/>
			</g>
		</g>
	</g>
	<path style="fill:#07085B;" d="M2172.141,1308.082l51.933-86.148c1.968-3.264,6.333-4.096,9.363-1.785l57.485,43.84
		c3.091,2.357,3.781,6.729,1.565,9.925l-79.943,115.303c-2.438,3.516-7.193,4.519-10.843,2.286l-51.764-31.661L2172.141,1308.082z"
		/>
	<path style="fill:#183658;" d="M2106.396,930.735c0,0,62.209,26.913,46.936,99.884c-15.273,72.973-136.427,49.779-136.427,49.779
		s-24.225-92.77-22.527-95.599C1996.074,981.972,2106.396,930.735,2106.396,930.735z"/>
	<path style="fill:#F9B5B2;" d="M2005.804,1308.082c0,0,12.677,61.973,14.258,60.782c1.581-1.189,144.253-42.537,144.253-42.537
		s-4.648,38.331-31.801,45.873s-142.566,54.305-144.443,49.779s-31.292-62.602-35.063-73.915
		c-3.771-11.313-13.575-61.783-12.821-61.815c0.754-0.031,54.107,3.74,54.107,3.74L2005.804,1308.082z"/>
	<polygon style="fill:#161616;" points="1089.302,1314.504 1193.386,994.417 1256.741,994.417 1218.275,1352.614 1182.072,1365.498 
			"/>
	<path style="fill:#F9A332;" d="M1977.407,1177.694c0,0,28.661,101.067,31.678,130.481c0,0-17.688,10.183-42.03,4.715v-104.272
		L1977.407,1177.694z"/>
	<path style="fill:#282828;" d="M1601.801,1303.273c0,0-54.304-63.355-134.63-52.041
		c-80.325,11.313-271.854,101.382-271.854,101.382l-318.707-178.313c0,0-24.89,20.364-32.809,47.517
		c0,0,277.179,229.662,280.574,229.662c3.394,0,470.64,0,470.64,0L1601.801,1303.273z"/>
	<path style="fill:#FEB546;" d="M1601.801,1303.273c0,0,92.771,12.445,168.57-57.698c75.801-70.144,70.145-119.923,149.338-149.338
		c0,0,19.232,31.678,57.698,81.457c0,0,14.708,109.186-1.131,126.433c-15.839,17.248-174.228,147.353-174.228,147.353h-219.48
		C1582.568,1451.479,1550.891,1405.095,1601.801,1303.273z"/>
	<path style="fill:#183658;" d="M2007.351,886.531c1.732,0.543,51.409-48.902,21.816-75.958
		c-19.799-18.102-28.284-3.111-56.002-26.304c-21.955-18.371-46.95,3.394-53.456,23.475c-5.029,15.527-39.439-4.355-50.345,24.58
		c-12.162,32.27,2.142,39.494-1.979,55.462c-7.92,30.688,9.333,60.244,66.749,44.971c0,0,60.527-34.789,61.94-35.072
		C1997.489,897.404,2007.351,886.531,2007.351,886.531z"/>
	<path style="fill:#00BCAA;" d="M2296.479,1519.652H788.556c-14.728,0-26.667-11.939-26.667-26.667v-14.548
		c0-14.728,11.939-26.666,26.667-26.666h1507.922c14.729,0,26.667,11.939,26.667,26.667v14.547
		C2323.146,1507.713,2311.207,1519.652,2296.479,1519.652z"/>
	<path style="fill:#1FEAD6;" d="M2375.471,1253.221L2375.471,1253.221c-46.706,0-84.568,37.862-84.568,84.567v181.864H794.133
		v-181.864c0-46.705-37.862-84.567-84.567-84.567l0,0c-73.261,0-132.65,59.389-132.65,132.649v271.24
		c0,40.301,32.67,72.972,72.972,72.972h123.882h20.364h1496.77h20.364h123.882c40.302,0,72.972-32.671,72.972-72.972v-271.24
		C2508.12,1312.609,2448.731,1253.221,2375.471,1253.221z"/>
	<path style="fill:#F9A332;" d="M1937.811,950.86c0,0-8.279-11.684-5.656-20.125c3.677-11.836,54.021-44.645,71.558-44.645
		c17.535,0,21.778,28.566,21.778,28.566L1937.811,950.86z"/>
	<path style="fill:#FFC0BB;" d="M2227.789,1325.953c0.023-0.254,0.032-0.505,0.018-0.748c-0.375-6.35-1.949-7.429-3.096-7.646
		c0.397-0.936,0.572-1.852,0.463-2.733c-1.143-9.192-5.937-2.008-5.937-2.008c-10.435,10.396-37.503,16.23-37.503,16.23
		l-8.883,0.169c0.703-1.336-0.711-21.135-0.711-21.135s-24.158,28.751-24.404,29.1c-0.858,1.373,5.926,16.421,9.015,21.534
		c3.063,5.12,8.698,17.167,9.025,18.096c0,0,20.801-8.092,28.558-12.545c8.95-4.838,23.03-12.663,28.809-17.047
		c4.166-3.16,5.047-6.94,4.836-10.049C2230.813,1333.48,2229.531,1329.135,2227.789,1325.953z"/>
	<g>
		<path style="fill:#F99893;" d="M2227.76,1325.452c-0.831,2.35-2.269,4.448-3.87,6.361c-1.608,1.922-3.505,3.585-5.511,5.079
			c-2.049,1.438-4.21,2.717-6.498,3.713c-1.127,0.531-2.316,0.917-3.469,1.376c-1.191,0.36-2.385,0.704-3.583,1.007
			c2.269-1.006,4.529-1.967,6.687-3.132c2.161-1.152,4.248-2.422,6.229-3.841c1.969-1.434,3.821-3.021,5.531-4.759
			C2224.965,1329.502,2226.528,1327.6,2227.76,1325.452z"/>
		<path style="fill:#F99893;" d="M2228.015,1337.182c-1.013,2.277-2.611,4.257-4.358,6.037c-1.755,1.789-3.776,3.298-5.895,4.629
			c-2.155,1.272-4.41,2.377-6.77,3.189c-1.166,0.44-2.383,0.732-3.567,1.099c-1.216,0.265-2.433,0.514-3.651,0.721
			c2.342-0.824,4.67-1.604,6.913-2.595c2.245-0.979,4.425-2.08,6.511-3.338c2.076-1.274,4.048-2.71,5.89-4.309
			C2224.909,1340.999,2226.618,1339.226,2228.015,1337.182z"/>
		<path style="fill:#F99893;" d="M2224.711,1317.559c-0.831,2.351-2.269,4.449-3.869,6.362c-1.609,1.922-3.506,3.584-5.512,5.079
			c-2.049,1.438-4.21,2.717-6.498,3.713c-1.127,0.531-2.316,0.917-3.469,1.376c-1.191,0.359-2.384,0.704-3.583,1.007
			c2.269-1.007,4.528-1.967,6.687-3.132c2.161-1.152,4.248-2.422,6.229-3.841c1.969-1.434,3.821-3.021,5.531-4.759
			C2221.916,1321.609,2223.48,1319.707,2224.711,1317.559z"/>
	</g>
	<path style="fill:#F99893;" d="M1937.693,1080.585c4.266,25.081,21.899,55.837,45.334,78.553
		c4.019-9.305,13.047-20.475,13.047-20.475l-1.781-42.426l-54.22-17.724L1937.693,1080.585z"/>
	<path style="fill:#FFC0BB;" d="M1982.661,1071.323c0,0-8.921,30.571,8.323,63.38c17.243,32.81,50.485,39.426,56.674,39.41
		c2.872-0.007,34.211-37.524,34.211-37.524s13.953,1.886,19.986-0.754c0,0-3.771-23.382,0-31.678
		c3.771-8.297,39.598-51.665,19.232-95.787c-20.363-44.122-64.486-3.772-64.486-3.772l-39.22,44.877L1982.661,1071.323z"/>
	<path style="fill:#183658;" d="M2017.382,1049.476c0,0,84.474,16.97,103.706-41.105c19.233-58.076-32.809-109.552-71.84-111.815
		s-125.646,12.827-139.155,111.437c-13.51,98.611,70.925,94.518,70.925,94.518s-3.044-17.303,1.644-31.187L2017.382,1049.476z"/>
	<path style="fill:#FFC0BB;" d="M2020.042,1051.274c-0.512,14.546-11.272,25.968-24.035,25.511
		c-12.763-0.456-22.693-12.619-22.182-27.165s11.272-25.967,24.035-25.511C2010.623,1024.566,2020.555,1036.729,2020.042,1051.274z"
		/>
	<path style="opacity:0.2;fill:#FF5B7E;" d="M1931.641,1317.559c-196.236,92.349-329.84-14.285-329.84-14.285
		c-50.91,101.821-19.232,148.206-19.232,148.206h219.48c0,0,158.389-130.104,174.228-147.353c2.946-3.208,4.834-9.602,5.958-17.878
		C1967.313,1298.1,1950.527,1308.671,1931.641,1317.559z"/>
	<path style="fill:#FFC0BB;" d="M1882.94,1348.527l42.537,103.244h83.607l156.691-74.96l-16.97-40.163
		c0,0-143.115,51.477-154.429,51.477s-27.323-75.234-27.323-75.234L1882.94,1348.527z"/>
	<path style="fill:#F9A332;" d="M1861.581,1183.438c-0.527,37.518,0.307,124.808,17.776,168.483c0,0,61.596,7.542,103.959-27.152
		c0,0-24.01-124.448-31.553-150.469c-6.062-20.913-42.205-86.66-76.62-35.289C1866.35,1152.138,1861.803,1167.641,1861.581,1183.438
		z"/>
	<path style="fill:#333333;" d="M2076.301,1089.963c0.188,3.271,2.994,5.77,6.271,5.58s5.78-2.995,5.593-6.267
		s-2.994-5.77-6.271-5.58S2076.113,1086.691,2076.301,1089.963z"/>
	<path style="fill:#07085B;" d="M2076.291,1067.508c2.699,0.436,5.196,0.983,7.561,1.767c2.36,0.777,4.54,1.826,6.498,3.17
		c1.932,1.361,3.781,2.909,5.287,4.876l0.616,0.704c0.202,0.239,0.351,0.516,0.545,0.766l1.121,1.557
		c0.743,1.063,1.339,2.223,2.194,3.34c-0.057-1.352-0.206-2.73-0.512-4.078c-0.453-1.289-0.75-2.697-1.503-3.897
		c-1.227-2.555-3.29-4.727-5.656-6.364c-2.39-1.636-5.185-2.634-7.983-2.938C2081.662,1066.137,2078.819,1066.392,2076.291,1067.508
		z"/>
	<path style="fill:#F99893;" d="M2068.669,1150.887c0.198,0.163,0.405,0.313,0.61,0.465l1.875-2.175
		c-0.146-0.159-0.289-0.326-0.436-0.483c-1.872-2.198-3.59-4.479-4.974-7.014c-1.413-2.506-2.653-5.137-3.762-7.878
		c-1.118-2.743-2.109-5.569-3.125-8.535c-0.57,3.109-0.334,6.288,0.256,9.386c0.628,3.095,1.739,6.121,3.315,8.92
		C2063.966,1146.395,2066.169,1148.874,2068.669,1150.887z"/>
	<path style="fill:#282828;" d="M1305.401,964.043c0,0-18.19,27.32-14.514,32.128s18.385,0.566,20.082-0.283
		c1.697-0.849,9.616-18.95,9.616-19.799C1320.585,975.242,1305.401,964.043,1305.401,964.043z"/>
	<path style="fill:#FFFFFF;" d="M1310.969,995.889c0,0-9.617,61.093,22.627,56.567c32.243-4.525,11.879-63.355,1.131-79.76
		c0,0,16.97-33.375,17.536-39.597c0,0,14.708,11.878,34.506,13.576c19.798,1.697,48.647-6.398,66.749-60.897
		c0,0,106.912,6.593,117.66,5.462c0,0-3.96,10.127,4.525,20.902c8.485,10.775,31.111,50.372,34.506,58.857
		c3.394,8.485-11.879,43.557-3.395,49.214c8.485,5.656,36.769-5.108,38.466-34.232c1.697-29.124-29.415-78.337-28.85-85.691
		c0.566-7.354,19.941-17.366,19.941-17.366l108.467-1.318c0,0,24.324-17.201,14.142-32.916
		c-10.182-15.715-18.102-41.736-38.466-42.302l-3.677-0.141l0.095-34.553c0,0-22.627,14.33-26.021,24.135
		c0,0-6.018-12.191-15.445-24.488c0,0-17.363,7.518-30.186,39.572c0,0-12.103-1.131-25.001-6.222
		c-12.898-5.091-25.735,5.657-41.943,2.263c-16.209-3.394-92.01-3.919-113.505-3.657c-21.496,0.263-83.908-4.074-115.963,17.233
		c-27.989,18.605-61.456,62.836-52.796,109.929C1296.073,930.459,1309.272,971.565,1310.969,995.889z"/>
	<path style="fill:#282828;" d="M1366.971,856.191c-6.008,5.326-11.897,10.778-17.482,16.519
		c-5.604,5.708-11.03,11.626-15.667,18.074c-1.068,1.662-2.277,3.249-3.178,4.99c-0.45,0.867-1.038,1.678-1.404,2.573l-1.188,2.647
		c-1.293,3.579-1.732,7.574-1.991,11.503c-0.178,1.968-0.146,3.962-0.212,5.942c0.052,1.988,0.006,3.975,0.138,5.962
		c0.083,1.988,0.193,3.975,0.376,5.959c0.134,1.986,0.374,3.964,0.593,5.943c0.854,7.918,2.264,15.79,4.374,23.451
		c1.022,3.839,2.332,7.596,3.861,11.223l1.273,2.638c0.466,0.897,0.937,1.792,1.378,2.699c0.891,1.812,1.743,3.641,2.575,5.478
		c3.307,7.357,6.194,14.912,8.355,22.691c0.984,3.915,1.851,7.864,2.315,11.876c0.438,4.008,0.539,8.073-0.091,12.048
		c0.355-4.009,0.021-8.012-0.577-11.954c-0.648-3.943-1.691-7.806-2.846-11.623c-2.379-7.623-5.441-15.024-8.929-22.207
		c-0.876-1.794-1.771-3.579-2.703-5.342l-1.394-2.645l-1.37-2.769c-1.624-3.747-2.997-7.578-4.078-11.484
		c-2.225-7.795-3.738-15.762-4.67-23.793c-0.204-2.011-0.428-4.02-0.545-6.04c-0.167-2.015-0.259-4.036-0.324-6.059
		c-0.113-2.019-0.049-4.049-0.082-6.073c0.087-2.028,0.074-4.055,0.276-6.085c0.315-4.051,0.771-8.135,2.243-12.12
		c1.57-3.889,3.854-7.302,6.251-10.581C1342.227,876.822,1354.35,866.099,1366.971,856.191z"/>
	<path style="fill:#282828;" d="M1461.411,866.055c-4.633,12.178-9.394,24.295-14.228,36.38c-2.361,6.165-5.476,11.996-9.149,17.473
		c-3.666,5.477-7.983,10.56-12.98,14.936c-4.981,4.383-10.751,7.947-17.029,10.244c-6.281,2.283-13.057,3.153-19.676,2.65
		c-6.637-0.486-13.075-2.304-19.114-4.867c-6.017-2.638-11.69-5.952-16.97-9.771c2.816,1.641,5.634,3.265,8.544,4.705
		c2.911,1.434,5.872,2.755,8.908,3.859c6.053,2.228,12.375,3.739,18.755,4.027c6.371,0.292,12.774-0.641,18.708-2.898
		c5.961-2.201,11.392-5.687,16.223-9.848c4.837-4.174,9.026-9.092,12.73-14.34c3.653-5.281,6.899-10.905,9.39-16.83
		C1450.727,889.826,1456.005,877.911,1461.411,866.055z"/>
	<path style="fill:#282828;" d="M1584.472,855.036c-1.72,6.216-3.677,12.345-5.716,18.443c-2.025,6.104-4.191,12.156-6.383,18.199
		l-0.05,0.138l-0.098,0.146c-0.073,0.111-0.262,0.519-0.362,0.821c-0.113,0.334-0.209,0.687-0.283,1.049
		c-0.15,0.725-0.22,1.485-0.235,2.254c-0.038,1.542,0.185,3.115,0.509,4.674c0.639,3.134,1.879,6.17,3.258,9.138
		c2.856,5.914,6.572,11.452,10.413,16.92c-2.346-2.386-4.534-4.927-6.598-7.579c-2.038-2.669-3.949-5.458-5.579-8.435
		c-1.643-2.969-3.002-6.132-3.842-9.511c-0.413-1.69-0.658-3.443-0.646-5.238c0.007-0.897,0.077-1.805,0.254-2.716
		c0.088-0.456,0.204-0.912,0.354-1.368c0.176-0.482,0.293-0.857,0.664-1.453l-0.146,0.284c2.238-6.025,4.504-12.04,6.91-18.004
		C1579.286,866.827,1581.761,860.888,1584.472,855.036z"/>
	<path style="fill:#FFC0BB;" d="M1751.707,849.922c-1.463,0.247-2.063,2.021-1.042,3.097c3.166,3.335,8.404,8.554,10.498,6.912l0,0
		c0.698-3.664,0.247-7.494-2.182-11.241L1751.707,849.922z"/>
	<path style="fill:#161616;" d="M1704.292,840.828c1.79-0.435,3.484-0.747,5.158-0.879c1.669-0.135,3.298-0.054,4.864,0.27
		c1.557,0.34,3.109,0.818,4.56,1.646l0.566,0.276c0.188,0.095,0.353,0.228,0.539,0.333l1.104,0.674
		c0.739,0.466,1.413,1.03,2.236,1.5c-0.389-0.824-0.842-1.642-1.385-2.399c-0.618-0.682-1.171-1.479-1.952-2.028
		c-1.43-1.266-3.279-2.076-5.178-2.474c-1.911-0.392-3.908-0.28-5.727,0.262C1707.27,838.572,1705.57,839.474,1704.292,840.828z"/>
	<path style="fill:#282828;" d="M1716.839,806.247l0.095-34.553c0,0-22.627,14.33-26.021,24.135l6.977,12.256L1716.839,806.247z"/>
	<path style="fill:#FFC0BB;" d="M1676.205,777.727l18.102,30.358c0,0-10.371,3.96-18.102,3.206
		C1676.205,811.291,1669.982,801.109,1676.205,777.727z"/>
	<path style="fill:#3D3A55;" d="M2437.785,1742.809H644.324c-2.761,0-5-2.238-5-4.999v-2.728c0-2.762,2.239-5,5-5h1793.461
		c2.762,0,5,2.238,5,5v2.728C2442.785,1740.57,2440.547,1742.809,2437.785,1742.809z"/>
</g>
<g>
	<rect x="931.242" y="554.524" style="fill:#FFFFFF;" width="42.097" height="170.304"/>
	
		<rect x="1241.022" y="620.943" transform="matrix(-1.836970e-16 1 -1 -1.836970e-16 1963.8452 -551.6544)" style="fill:#AFDBFE;" width="33.456" height="170.304"/>
	
		<rect x="1263.68" y="587.377" transform="matrix(-1.836970e-16 1 -1 -1.836970e-16 1952.9363 -607.8792)" style="fill:#FFFFFF;" width="33.456" height="170.304"/>
	
		<rect x="1228.435" y="554.649" transform="matrix(-1.836970e-16 1 -1 -1.836970e-16 1884.9631 -605.3616)" style="fill:#70C0FD;" width="33.455" height="170.304"/>
	<rect x="978.972" y="485.924" style="fill:#AFDBFE;" width="43.048" height="236.387"/>
	<rect x="886.591" y="511.979" style="fill:#70C0FD;" width="39.649" height="210.331"/>
	
		<rect x="1066.174" y="511.979" transform="matrix(0.8986 -0.4387 0.4387 0.8986 -160.6585 539.0024)" style="fill:#70C0FD;" width="39.649" height="210.331"/>
	<path style="fill:#AFDBFE;" d="M1480.051,493.141c-10.441,0-18.906,8.464-18.906,18.905v21.059c0,3.865-3.133,6.999-6.998,6.999
		h-8.644v-38.366c0-13.999-11.349-25.349-25.349-25.349s-25.349,11.349-25.349,25.349v80.752h-4.871
		c-6.165,0-11.162-4.997-11.162-11.162v-16.896c0-10.441-8.464-18.905-18.905-18.905l0,0c-10.441,0-18.905,8.464-18.905,18.905
		v28.058c0,20.882,16.929,37.811,37.811,37.811h16.033v48.227h50.697v-90.614h15.642c20.882,0,37.81-16.929,37.81-37.811v-28.058
		C1498.955,501.605,1490.491,493.141,1480.051,493.141z"/>
	<path style="opacity:0.5;fill:#70C0FD;" d="M1419.764,668.528V476.409c-13.818,0.211-24.958,11.461-24.958,25.329v80.752h-4.871
		c-6.165,0-11.162-4.997-11.162-11.162v-16.896c0-10.441-8.464-18.905-18.905-18.905l0,0c-10.441,0-18.905,8.464-18.905,18.905
		v28.058c0,20.882,16.929,37.811,37.811,37.811h16.033v48.227H1419.764z"/>
	<path style="fill:#70C0FD;" d="M1435.664,721.117h-31.8c-14.779,0-26.76-11.98-26.76-26.76v-58.559h85.319v58.559
		C1462.423,709.137,1450.443,721.117,1435.664,721.117z"/>
	<rect x="855.125" y="721.117" style="fill:#07085B;" width="680.967" height="19.239"/>
</g>
<rect x="1912.785" y="300.674" style="fill:#70C0FD;" width="350.9" height="350.9"/>
<rect x="1948.738" y="336.627" style="opacity:0.5;fill:#97CEF7;" width="278.994" height="278.994"/>
</svg>
