<?xml version="1.0" encoding="utf-8"?>
<!-- Generator: Adobe Illustrator 27.5.0, SVG Export Plug-In . SVG Version: 6.00 Build 0)  -->
<svg version="1.1" id="_x3C_Layer_x3E_" xmlns="http://www.w3.org/2000/svg" xmlns:xlink="http://www.w3.org/1999/xlink" x="0px"
	 y="0px" viewBox="0 0 1512 1008" style="enable-background:new 0 0 1512 1008;" xml:space="preserve">
<g>
	<path style="fill:#E5804E;" d="M493.563,376.496c0.012,0.013,0.025,0.028,0.037,0.041c-0.007-0.017-0.016-0.037-0.023-0.055
		C493.396,376.295,493.39,376.3,493.563,376.496z"/>
</g>
<path style="fill:#FF6155;" d="M150.569,294.108c0-0.413-0.335-0.748-0.748-0.748l0,0c-0.413,0-0.748,0.335-0.748,0.748v0.997
	c0,0.413,0.335,0.748,0.748,0.748l0,0c0.413,0,0.748-0.335,0.748-0.748V294.108z"/>
<g>
	<path style="fill:#FFFDCF;" d="M1306.323,909.888c199.987-319.724,119.015-720.467-33.481-739.168
		c-68.269-8.372-126.895,2.235-191.673-40.644c-62.434-41.328-123.678-66.017-195.725-57.069
		C741.412,90.897,655.094,230.134,536.846,311.802c-69.826,48.224-134.236,52.238-212.305,52.238
		c-62.526,0-128.213,1.691-176.681,57.507c-110.032,126.71-52.221,353.225,24.56,488.341H1306.323z"/>
	<g>
		<g>
			<rect x="773.21" y="154.045" style="fill:#D5DBA9;" width="178.081" height="132.436"/>
			<rect x="802.573" y="187.716" style="fill:#FFFDCF;" width="119.353" height="65.095"/>
		</g>
		<g>
			<rect x="560.71" y="247.537" style="fill:#D5DBA9;" width="146.655" height="107.076"/>
			<rect x="584.892" y="274.759" style="fill:#FFFDCF;" width="98.29" height="52.631"/>
		</g>
	</g>
	<g>
		<path style="fill:#A7AEAF;" d="M1422.007,906.895c0,16.527-298.181,29.926-666.007,29.926
			c-367.825,0-666.006-13.398-666.006-29.926c0-16.528,298.181-29.927,666.006-29.927
			C1123.826,876.968,1422.007,890.367,1422.007,906.895z"/>
		<g>
			<path style="fill:#818687;" d="M1418.189,904.894c0,6.198-274.283,11.223-612.63,11.223c-338.347,0-612.631-5.025-612.631-11.223
				c0-6.198,274.284-11.224,612.631-11.224C1143.906,893.67,1418.189,898.695,1418.189,904.894z"/>
			<g>
				<g>
					<path style="fill:#C44923;" d="M537.124,827.996c257.471,2.124,509.476,1.384,762.856-1.699
						c0.536-0.687,1.015-1.378,1.492-2.07c10.777,0.85,21.665,1.807,32.393,0.266c2.283-0.32,4.622-0.741,6.853-1.383l-4.832,30.803
						h-15.452h-19.438h-115.302h-19.437H472.644h-19.438h-12.265l-4.513-25.065c4.776-0.053,9.562-0.106,14.337-0.158
						c16.998-0.216,34.208-0.531,51.783-0.957C514.072,827.838,525.601,827.944,537.124,827.996z"/>
					<polygon style="fill:#7A2E17;" points="438.17,838.514 1339.207,832.753 1340.717,823.109 436.428,828.848 					"/>
					<polygon style="fill:#C44923;" points="1320.433,853.913 1329.458,906.334 1320.433,906.334 1300.995,853.913 					"/>
					<polygon style="fill:#C44923;" points="472.644,853.913 453.206,906.334 444.179,906.334 453.206,853.913 					"/>
					<polygon style="fill:#7A2E17;" points="1185.693,853.913 1194.719,906.334 1185.693,906.334 1166.256,853.913 					"/>
					<polygon style="fill:#7A2E17;" points="337.905,853.913 318.472,906.334 309.389,906.334 318.472,853.913 					"/>
					<path style="fill:#7A2E17;" d="M436.428,828.848l4.513,25.065H337.905h-19.433h-20.606l-4.675-27.137
						C341.522,828.638,388.258,829.22,436.428,828.848z"/>
					<polygon style="fill:#7A2E17;" points="446.363,906.334 461.054,859.326 471.075,858.164 472.644,853.913 453.206,853.913 
						444.179,906.334 					"/>
					<polygon style="fill:#7A2E17;" points="1321.044,857.479 1311.31,859.667 1324.021,906.334 1320.433,906.334 1300.995,853.913 
						1320.433,853.913 					"/>
				</g>
				<g>
					<path style="fill:#C64B1A;" d="M1324.943,600.693c-46.898-9.667-93.101-13.28-140.902-12.906
						c-0.369-2.019-0.742-4.039-1.168-6.058c79.242-7.7,150.674-0.847,228.476,17.261c0,0.11,0,0.215,0,0.321
						C1379.803,595.539,1356.968,595.592,1324.943,600.693z"/>
					<path style="fill:#B5421A;" d="M1324.943,600.693c-1.168,38.503-5.207,76.954-12.06,114.874
						c-37.068-3.082-74.135-5.418-111.261-7.173c-4.46-40.15-10.04-80.195-17.582-120.608
						C1231.842,587.413,1278.045,591.026,1324.943,600.693z"/>
					<path style="fill:#FF953E;" d="M1411.349,599.31c-3.024,63.254-4.565,125.177-24.908,185.139
						c-3.188,9.451-6.794,19.17-13.7,26.397c-5.949,6.265-13.918,10.192-22.306,12.264c-2.231,0.642-4.57,1.063-6.852,1.383
						c-10.729,1.541-21.617,0.584-32.393-0.266c21.93-30.643,27.506-72.333,14.23-107.597c-4.196-0.373-8.335-0.747-12.537-1.062
						c6.853-37.92,10.891-76.371,12.06-114.874C1356.968,595.592,1379.803,595.539,1411.349,599.31z"/>
					<g>
						<path style="fill:#C64B1A;" d="M381.561,436.212c9.667-0.215,19.333-0.426,29.052-0.531
							c-10.991,0.105-17.792,4.408-22.2,12.212c-4.517,8.126-4.99,17.845-5.043,27.138c-0.163,36.862,4.775,73.72,14.71,109.247
							c-20.769-1.699-41.743-2.335-62.67-1.962c-7.331-29.846-11.418-60.44-12.212-91.138c-0.373-13.38,0.263-27.88,8.546-38.399
							C342.9,438.495,363.453,436.691,381.561,436.212z"/>
						<path style="fill:#C64B1A;" d="M878.185,702.713c-14.174,0-28.411,0-42.591,0c-8.71,0-17.419,0-26.128,0
							c-1.861-20.448-4.354-40.786-7.542-61.076c-5.627-35.316-13.332-70.264-23.05-104.624
							c-4.408-15.346-8.389-31.655-14.343-46.629c0.431-16.199,13.706-30.594,29.105-36.7c12.376-4.833,25.975-6,39.461-6.374
							c-11.682,3.24-19.754,16.625-20.659,28.095c-1.489,19.175-1.383,38.556-0.369,57.732
							c1.857,35.211,7.432,70.154,16.674,104.198C836.125,664.473,845.155,699.737,878.185,702.713z"/>
						<path style="fill:#E0752D;" d="M1184.041,587.787c7.542,40.413,13.122,80.458,17.582,120.608
							c-107.653-5.255-215.622-5.734-323.438-5.681c-33.029-2.977-42.059-38.24-49.442-65.379
							c-9.242-34.043-14.817-68.987-16.674-104.198c-1.014-19.176-1.12-38.557,0.369-57.732c0.904-11.47,8.977-24.856,20.659-28.095
							c0,0,0,0,0.059,0c4.774-0.106,9.607-0.158,14.336-0.211c74.83-1.168,156.244,3.718,231.238,14.71
							c24.429,3.561,50.293,5.896,68.828,22.253c17.845,15.773,23.262,40.844,28.415,64.048c2.494,11.261,4.777,22.468,6.901,33.618
							C1183.299,583.747,1183.672,585.767,1184.041,587.787z"/>
						<path style="fill:#E0752D;" d="M764.53,490.384c5.954,14.974,9.935,31.282,14.343,46.629
							c9.718,34.36,17.423,69.308,23.05,104.624c3.188,20.29,5.682,40.629,7.542,61.076c-80.357,0.053-160.709,0.105-241.062,0.158
							c-25.281,0-50.51,0.052-75.791,0.052c-4.565-35.526-8.174-71.379-10.251-105.581c-27.133-6.369-55.496-10.724-84.281-13.064
							c-9.935-35.527-14.873-72.384-14.71-109.247c0.053-9.293,0.526-19.013,5.043-27.138c4.408-7.804,11.209-12.107,22.2-12.212
							c0.426,0,0.847,0,1.279,0c88.213-1.063,176.535,2.551,264.481,9.93c18.645,1.593,37.651,3.397,54.703,11.102
							c12.849,5.785,25.97,16.089,31.656,29.21C763.362,487.407,763.946,488.843,764.53,490.384z"/>
					</g>
					<g>
						<path style="fill:#4B967F;" d="M1358.434,545.367c-56.636-3.517-124.157-0.387-168.251,8.808
							c-23.104,16.726-42.77,37.985-58.064,62.024c-4.967,7.801-9.465,15.898-13.478,24.229
							c-10.777,22.465-17.948,46.684-20.872,71.435c63.417,9.347,128.906,12.371,193,11.363
							c12.856-19.541,25.605-39.199,36.858-59.649c4.41-7.907,8.557-15.923,12.434-24.102
							c13.865-29.266,22.088-61.393,24.003-93.737C1362.202,545.601,1360.321,545.484,1358.434,545.367z"/>
						<path style="fill:#35705C;" d="M1364.063,545.735c-1.915,32.344-10.138,64.471-24.003,93.737
							c-3.877,8.179-8.025,16.195-12.434,24.102c-11.252,20.45-24.002,40.108-36.858,59.649c-64.094,1.008-129.583-2.016-193-11.363
							c2.923-24.751,10.095-48.97,20.872-71.435c4.013-8.331,8.511-16.428,13.478-24.229c-0.712,8.287-0.594,16.591,0.639,24.742
							c6.009,39.712,84.914,64.525,158.088-24.843c23.433-28.619,38.987-53.381,67.589-70.73
							C1360.321,545.484,1362.202,545.601,1364.063,545.735z"/>
						<path style="fill:#4B967F;" d="M1344.218,581.123c-13.811,44.508-38.605,85.668-74.143,115.779
							C1299.179,661.374,1324.091,622.446,1344.218,581.123z"/>
					</g>
					<g>
						<g>
							<path style="fill:#1E141A;" d="M1082.019,616.99c-164.577,6.961-437.533,84.979-439.444,85.656
								c-0.073,6.809,4.881,10.918,5.62,17.708c29.507,4.538,533.362-11.18,567.174-20.903
								c38.831-11.167,12.422-64.194,5.644-85.116L1082.019,616.99z"/>
							<path style="fill:#FFFFFF;" d="M642.576,702.646c-10.322-1.104-31.257-27.24-39.259-35.001
								c-3.475,22.565,2.754,40.786,13.832,53.975c10.744,0.008,21.747-0.957,32.556-1.539L642.576,702.646z"/>
						</g>
						<g>
							<path style="fill:#35242F;" d="M1240.095,648.876c-2.136-32.772-123.91-10.211-123.91-10.211
								c-156.881-0.759-445.652,47.268-447.619,47.737c-0.741,6.763,3.787,11.378,3.857,18.208
								c23.63,6.261,363.733,32.887,506.239,39.113C1178.661,743.722,1244.166,711.289,1240.095,648.876z"/>
							<path style="fill:#FFFFFF;" d="M668.566,686.402c-10.165-2.198-28.439-30.422-35.642-38.994
								c-5.668,22.066-1.256,40.85,8.477,55.147c10.691,1.156,21.735,1.371,32.549,1.946L668.566,686.402z"/>
						</g>
						<g>
							<path style="fill:#FFB278;" d="M1124.235,542.456c-12.642-10.924-52.448-36.849-65.439-63.599
								c-5.343,4.586-4.979,7.288-10.633,11.477c7.687,42.2,46.352,105.883,69.779,110.519c12.609,2.495,36.093,1.425,38.477-17.334
								C1158.642,566.031,1135.442,552.142,1124.235,542.456z"/>
							<path style="fill:#680E37;" d="M1147.567,443.668c-8.4,15.835-15.283,32.527-23.848,48.379
								c-3.872,7.168-13.198,21.665-20.522,30.909c0.297,0.418,0.586,0.842,0.886,1.258c0.662,0.919,1.324,1.838,1.996,2.749
								c0.124,0.168,0.333,0.447,0.538,0.721c2.392,3.143,4.837,6.247,7.382,9.269c6.042,7.172,12.501,14.066,19.701,20.094
								c0.193,0.162,0.388,0.321,0.581,0.483c0.12,0.094,0.263,0.206,0.455,0.358c1.015,0.778,2.033,1.553,3.074,2.293
								c1.458,1.034,2.941,2.031,4.451,2.986c20.911-23.873,56.537-85.641,61.643-122.111L1147.567,443.668z"/>
							<g>
								<path style="fill:#FFB278;" d="M1070.52,466.473l4.946,14.957c6.112-5.751,8.375-14.001,8.067-22.546
									C1083.007,444.354,1069.518,457.625,1070.52,466.473z"/>
								<g>
									<path style="fill:#FF402C;" d="M1038.286,435.266l2.553,55.046c0.18,3.873,2.68,6.903,5.586,6.768l27.348-1.269
										c2.904-0.134,5.112-3.382,4.933-7.256l-2.553-55.046L1038.286,435.266z"/>
									<path style="fill:#FF402C;" d="M1076.159,482.622c-10.093,0.468-11.992-10.421-12.541-22.259
										c-0.393-8.472,2.604-10.443,5.776-12.532c1.882-1.239,4.015-2.643,6.067-5.656c4.405-6.483,8.506-7.99,11.17-8.114
										c5.595-0.259,9.927,5.424,10.303,13.513C1097.52,460.193,1085.807,482.175,1076.159,482.622z M1086.794,437.567
										c-3.063,0.142-6.387,2.627-9.36,6.999c-2.373,3.49-4.84,5.114-6.82,6.419c-3.099,2.037-4.652,3.06-4.365,9.255
										c0.652,14.058,3.294,19.173,9.748,18.874c8.129-0.377,18.808-20.646,18.308-31.42
										C1094.019,441.54,1090.931,437.376,1086.794,437.567z"/>
									<path style="fill:#FF6A5F;" d="M1050.481,482.056c0.095,2.065-1.083,3.798-2.633,3.87l0,0
										c-1.548,0.072-2.882-1.545-2.977-3.609l-1.669-35.998c-0.097-2.066,1.082-3.798,2.63-3.87l0,0
										c1.55-0.072,2.883,1.544,2.979,3.61L1050.481,482.056z"/>
								</g>
								<g>
									<path style="fill:#FFB278;" d="M1048.428,449.826c-2.957-2.258-11.3,3.618-12.943,5.968
										c-2.74,3.914-1.123,10.858,0.241,13.951c0.639,1.447,4.01,5.171,4.01,5.171c0.716-4.536,1.422-9.715,3.661-13.985
										C1044.734,458.384,1051.97,452.531,1048.428,449.826z"/>
									<path style="fill:#FFB278;" d="M1053.844,460.779c-2.345-2.708-11.901,1.692-14.071,3.732
										c-3.615,3.398-3.701,10.493-3.111,13.76c0.275,1.528,2.674,5.747,2.674,5.747c1.79-4.342,3.72-9.319,6.93-13.148
										C1048.184,468.586,1056.656,464.025,1053.844,460.779z"/>
									<path style="fill:#FFB278;" d="M1054.73,472.152c-2.401-2.421-11.828,1.321-13.945,3.088
										c-3.524,2.944-3.423,9.231-2.783,12.087c0.311,1.384,2.801,5.106,2.801,5.106c1.684-3.803,3.493-8.163,6.606-11.493
										C1049.268,478.954,1057.608,475.054,1054.73,472.152z"/>
									<path style="fill:#FFB278;" d="M1046.919,440.52c-2.956-2.256-11.3,3.619-12.942,5.969
										c-2.74,3.915-1.122,10.858,0.241,13.95c0.639,1.447,4.009,5.171,4.009,5.171c0.717-4.536,1.423-9.714,3.663-13.984
										C1043.227,449.078,1050.462,443.226,1046.919,440.52z"/>
								</g>
							</g>
						</g>
						<g>
							<path style="fill:#840D3E;" d="M1284.35,523.008c-2.997,8.25-5.911,16.536-8.471,24.691
								c-8.423,26.776-26.2,87.963-40.239,120.531c-19.689,4.613-37.413,5.009-75.47-3.864
								c-26.557-6.191-36.684-21.271-57.12-31.723c24.688-28.962,29.331-51.675,35.228-88.293c0.419-2.597,0.394-7.384,0.126-13.19
								c-0.744-15.654-3.324-38.653-4.078-45.55c-2.406-21.878,25.755-79.751,67.289-84.132c0,0,87.117-10.742,104.429,28.302
								C1313.939,447.581,1298.209,484.818,1284.35,523.008z"/>
							<g>
								<g>
									<path style="fill:#FFB278;" d="M1185.361,448.781c24.217-24.856,68.188-47.208,68.188-47.208s-11.31-9.848-16.838-21.31
										c-9.349-19.392-18.46-49.915-16.495-53.129l-39.53,53.628c2.866,7.65,5.383,15.352,6.271,23.095
										C1187.621,409.653,1179.76,454.53,1185.361,448.781z"/>
									<path style="fill:#E5804E;" d="M1186.956,403.857c3.387,0.884-0.804,5.287,2.858,5.652
										c54.414,5.448,28.437-79.16,30.402-82.375l-39.53,53.628C1183.552,388.412,1186.068,396.114,1186.956,403.857z"/>
								</g>
								<g>
									<path style="fill:#441D10;" d="M1130.413,312.329l10.401,0.437c0.946,0.892,0.659,13.299,0.81,16.338
										c0.309,6.187,0.588,13.63,3.142,19.304c-3.826-2.959-12.749-9.668-15.094-13.944
										C1126.163,328.062,1126.123,315.178,1130.413,312.329z"/>
									<g>
										<path style="fill:#FFB278;" d="M1158.174,367.908c-0.171-11.153-20.052-24.918-21.138-10.404
											c-0.401,5.386,5.433,16.134,11.266,19.234c6.202,3.291,9.953-1.568,12.847-1.929L1158.174,367.908z"/>
										<path style="fill:#E5804E;" d="M1141.97,358.371l0.278,0.269c0.743-1.302,3.982-0.977,5.662,0.475
											c2.094,1.809,1.593,2.926,1.207,4.69c-0.406,1.88-1.291,9.621,3.344,6.058
											C1158.963,364.867,1143.891,349.691,1141.97,358.371z"/>
									</g>
									<path style="fill:#FFB278;" d="M1160.86,387.436c-9.579-15.926-15.577-25.84-20.629-48.705
										c-3.35-15.145-3.423-38.5,4.297-47.432c16.039-18.564,33.301-12.462,54.832-1.088c0,0,26.474,61.384,24.166,72.822
										c-7.579,37.529-23.509,43.026-38.155,45.922C1170.892,411.819,1166.114,396.17,1160.86,387.436z"/>
									<g>
										<g>
											<path style="fill:#E5804E;" d="M1196.14,341.826c2.647-0.255,5.275-0.386,7.874-0.397c0.463,2.488-1.23,3.718-2.13,5.068
												c-1.329,1.975-3.003,2.973-5.331,3.56c-3.561,0.874-8.098,0.615-10.75-2.291
												C1188.635,345.692,1193.256,342.656,1196.14,341.826z"/>
										</g>
										<g>
											<path style="fill:#FFFFFF;" d="M1185.936,347.976c1.476-0.721,2.965-1.402,4.467-2.039
												c0.023-0.013,0.05-0.021,0.071-0.033c2.959-1.249,5.969-2.331,9.019-3.247c0.036-0.011,0.068-0.021,0.101-0.036
												c1.466-0.436,2.936-0.833,4.42-1.193c0.266-2.752-2.241-6.217-5.653-8.056c-1.187-0.653-2.489-1.104-3.756-1.249
												c-1.09-0.148-2.159-0.061-3.104,0.286c-3.137,1.13-4.815,3.289-5.572,5.713c-0.13,0.42-0.242,0.847-0.328,1.28
												c0.004,0.005,0.005,0.008,0.007,0.013C1185.065,342.282,1185.523,345.388,1185.936,347.976z"/>
											<path style="fill:#30241B;" d="M1185.601,339.403c0.004,0.005,0.005,0.008,0.007,0.013
												c1.425,2.217,3.093,4.652,4.795,6.521c0.023-0.013,0.05-0.021,0.071-0.033c2.959-1.249,5.969-2.331,9.019-3.247
												c0.036-0.011,0.068-0.021,0.101-0.036c0.085-2.826-0.55-6.172-1.233-9.249c-1.187-0.653-2.489-1.104-3.756-1.249
												c-1.09-0.148-2.159-0.061-3.104,0.286c-3.137,1.13-4.815,3.289-5.572,5.713
												C1185.799,338.543,1185.687,338.97,1185.601,339.403z"/>
											<path style="fill:#FFFFFF;" d="M1189.235,341.872c0.7,1.462,1.653,2.43,2.097,2.197c0.446-0.235,0.238-1.595-0.431-3.067
												c-0.671-1.469-1.567-2.487-2.042-2.245C1188.384,339.004,1188.54,340.411,1189.235,341.872z"/>
										</g>
									</g>
									<g>
										<g>
											<path style="fill:#E5804E;" d="M1157.019,354.359c2.004-0.06,3.984-0.028,5.929,0.089
												c-0.022,1.801-1.021,3.659-1.694,4.948c-0.995,1.886-2.221,2.77-3.944,3.174c-2.627,0.597-6.068-0.101-8.138-3.249
												C1151.297,357.592,1154.823,354.984,1157.019,354.359z"/>
										</g>
										<g>
											<path style="fill:#FFFFFF;" d="M1149.283,359.547c1.11-0.557,2.234-1.081,3.37-1.577
												c0.016-0.006,0.036-0.015,0.054-0.024c2.232-0.963,4.512-1.805,6.818-2.526c0.025-0.007,0.055-0.019,0.076-0.029
												c1.11-0.342,2.222-0.656,3.346-0.942c0.289-2.739-1.407-6.329-3.891-8.403c-0.861-0.74-1.826-1.286-2.785-1.53
												c-0.826-0.232-1.646-0.232-2.389,0.033c-2.468,0.865-3.867,2.86-4.521,5.21c-0.107,0.405-0.214,0.821-0.285,1.244
												c-0.002,0.004,0.001,0.009,0.002,0.013C1148.591,353.82,1148.926,356.95,1149.283,359.547z"/>
											<path style="fill:#30241B;" d="M1149.077,351.003c-0.002,0.004,0.001,0.009,0.002,0.013
												c1.034,2.36,2.281,4.946,3.574,6.953c0.016-0.006,0.036-0.015,0.054-0.024c2.232-0.963,4.512-1.805,6.818-2.526
												c0.025-0.007,0.055-0.019,0.076-0.029c0.127-2.818-0.218-6.207-0.545-9.344c-0.861-0.74-1.826-1.286-2.785-1.53
												c-0.826-0.232-1.646-0.232-2.389,0.033c-2.468,0.865-3.867,2.86-4.521,5.21
												C1149.255,350.164,1149.148,350.58,1149.077,351.003z"/>
											<path style="fill:#FFFFFF;" d="M1151.999,354.19c0.844,1.385,1.819,2.32,2.143,2.121c0.325-0.2-0.107-1.459-0.923-2.86
												c-0.818-1.401-1.729-2.396-2.083-2.188C1150.791,351.474,1151.154,352.803,1151.999,354.19z"/>
										</g>
									</g>
									<path style="fill:#5B2A15;" d="M1199.856,318.941l3.014,7.171c-0.278,1.583-16.755,11.057-20.273,13.37
										c-2.448-2.026-8.225-7.046-5.974-9.568C1177.977,326.345,1193.912,319.004,1199.856,318.941z"/>
									<path style="fill:#5B2A15;" d="M1140.746,336.046l1.148,7.692c0.908,1.24,16.754,1.565,20.267,1.883
										c0.798-2.938,1.631-7.391-0.155-11.2C1157.263,330.199,1142.301,333.14,1140.746,336.046z"/>
									<path style="fill:#E5804E;" d="M1170.778,347.706c0.134,0.913,0.292,1.82,0.458,2.728c0.16,0.898,0.276,1.805,0.447,2.692
										c0.138,0.895,0.232,1.799,0.383,2.688l0.284,2.684l0.167,2.675c-0.013,0.896,0.033,1.787,0.037,2.675l-0.121,2.668
										l-0.247,2.665l-0.071,0.814l0.643,0.262c0.635,0.257,1.267,0.511,1.91,0.741c0.311,0.14,0.656,0.186,0.992,0.263
										l1.004,0.21c0.662,0.166,1.352,0.126,2.025,0.175c0.674,0.038,1.335-0.069,1.998-0.097c0.336-0.008,0.65-0.089,0.973-0.136
										l0.966-0.162c0.631-0.113,1.257-0.247,1.892-0.388c0.619-0.129,1.243-0.251,1.869-0.395
										c0.627-0.096,1.255-0.218,1.893-0.338c-0.638-0.058-1.283-0.125-1.939-0.163c-0.645-0.013-1.29-0.005-1.933,0.002
										c-1.286,0.031-2.56,0.105-3.797,0.082c-0.613-0.041-1.235-0.008-1.829-0.109l-0.896-0.139
										c-0.294-0.034-0.591-0.07-0.877-0.167l-0.859-0.245c-0.287-0.086-0.58-0.133-0.847-0.281
										c-0.547-0.254-1.096-0.486-1.646-0.714l0.566,1.075l0.319-2.791c0.049-0.938,0.057-1.877,0.085-2.814
										c-0.037-0.939-0.062-1.875-0.129-2.81l-0.359-2.783c-0.181-0.917-0.369-1.833-0.572-2.739
										c-0.231-0.901-0.491-1.79-0.758-2.678c-0.287-0.882-0.612-1.753-0.928-2.619
										C1171.529,349.388,1171.166,348.544,1170.778,347.706z"/>
									<path style="fill:#E5804E;" d="M1190.738,389.643c0,0-0.085-0.149-0.244-0.379c-0.147-0.215-0.505-0.549-0.934-0.786
										c-0.435-0.268-1.005-0.461-1.624-0.545c-0.619-0.1-1.275-0.057-1.916,0.053c-1.278,0.245-2.427,0.889-3.104,1.588
										c-0.348,0.325-0.585,0.668-0.731,0.914c-0.14,0.256-0.205,0.408-0.205,0.408s0.175-0.015,0.448-0.061
										c0.275-0.044,0.647-0.109,1.07-0.191c0.857-0.149,1.901-0.379,2.924-0.573c0.255-0.047,0.503-0.095,0.755-0.143
										c0.253-0.042,0.495-0.085,0.734-0.117c0.241-0.046,0.472-0.062,0.694-0.097c0.217-0.008,0.443-0.062,0.642-0.06
										c0.421-0.02,0.737-0.05,1.037-0.025C1190.566,389.649,1190.738,389.643,1190.738,389.643z"/>
									<path style="fill:#5B2A15;" d="M1115.514,304.812c4.21,5.509,10.81,11.751,13.592,13.512
										c8.297,5.284,39.509-14.72,47.046-19.309c3.121,5.531,4.796,8.353,11.54,7.582c7.025-0.806,18.182-2.45,18.92,4.949
										c2.271,22.64,8.945,26.141,13.569,33.347l7.732-14.139c1.272-9.21-2.312-41.063-5.74-43.821
										c-3.452-2.774-20.252-4.849-23.747-6.047c-0.888-0.306-2.678-2.398-5.295-5.02c-7.074-7.081-20.18-18.012-37.78-7.956
										c-5.151,2.941-43.459,25.741-43.558,29.554C1111.744,299.194,1113.291,301.903,1115.514,304.812z"/>
									<path style="fill:#441D10;" d="M1115.514,304.812c4.21,5.509,10.81,11.751,13.592,13.512
										c8.297,5.284,39.509-14.72,47.046-19.309c3.121,5.531,4.796,8.353,11.54,7.582c7.025-0.806,18.182-2.45,18.92,4.949
										c2.271,22.64,8.945,26.141,13.569,33.347l7.732-14.139c1.272-9.21-2.312-41.063-5.74-43.821
										c-3.452-2.774-20.252-4.849-23.747-6.047c-0.888-0.306-2.678-2.398-5.295-5.02c-1.276,4.377-4.024,8.299-7.663,11.297
										c-10.984,9.02-26.423,15.392-40.234,18.613C1136.543,307.814,1125.325,307.669,1115.514,304.812z"/>
									<g>
										<path style="fill:#FFB278;" d="M1219.343,345.247c-6.033-9.68,4.084-31.173,13.098-19.21
											c3.35,4.437,4.104,16.517,0.61,22.016c-3.711,5.841-9.75,3.478-12.538,4.577L1219.343,345.247z"/>
										<path style="fill:#E5804E;" d="M1228.519,329.175l-0.099,0.367c-1.384-0.762-4.095,1.096-4.791,3.156
											c-0.864,2.571,0.198,3.291,1.524,4.624c1.407,1.418,6.486,7.649,0.371,6.832
											C1216.957,343.011,1221.991,322.641,1228.519,329.175z"/>
									</g>
									<path style="fill:#E5804E;" d="M1178.873,381.224c0,0,0.105,0.06,0.304,0.171c0.205,0.099,0.498,0.189,0.892,0.276
										c0.399,0.068,0.882,0.118,1.444,0.114c0.555,0.007,1.187-0.061,1.862-0.146c0.68-0.094,1.401-0.267,2.155-0.456
										c0.748-0.216,1.521-0.491,2.294-0.82c0.764-0.344,1.539-0.727,2.272-1.197c0.723-0.481,1.45-0.984,2.074-1.598
										c0.642-0.592,1.224-1.246,1.717-1.95c0.517-0.69,0.909-1.446,1.278-2.189c0.158-0.385,0.312-0.764,0.464-1.137
										c0.119-0.383,0.261-0.756,0.362-1.13c0.092-0.379,0.181-0.747,0.268-1.105c0.065-0.364,0.13-0.717,0.192-1.056
										c0.068-0.34,0.075-0.673,0.122-0.988c0.041-0.315,0.088-0.618,0.095-0.903c0.017-0.568,0.092-1.074,0.083-1.489
										c0.01-0.831,0.042-1.32,0.042-1.32s0.151,0.456,0.375,1.274c0.125,0.408,0.199,0.916,0.307,1.503
										c0.102,0.586,0.157,1.259,0.189,1.997c-0.002,0.371-0.002,0.759-0.003,1.158c-0.026,0.402-0.082,0.815-0.125,1.244
										c-0.056,0.427-0.159,0.86-0.239,1.309c-0.106,0.444-0.255,0.889-0.397,1.345c-0.344,0.888-0.744,1.808-1.32,2.643
										c-0.541,0.857-1.228,1.637-1.972,2.341c-0.748,0.71-1.596,1.294-2.458,1.803c-0.865,0.51-1.776,0.885-2.668,1.194
										c-1.797,0.581-3.554,0.801-5.049,0.734c-0.746-0.027-1.428-0.115-2.019-0.263c-0.594-0.123-1.093-0.331-1.483-0.517
										c-0.389-0.196-0.673-0.424-0.832-0.577C1178.952,381.316,1178.873,381.224,1178.873,381.224z"/>
								</g>
							</g>
						</g>
						<path style="fill:#680E37;" d="M1284.35,523.008c-2.997,8.25-5.911,16.536-8.471,24.691
							c-8.423,26.776-26.2,87.963-40.239,120.531c-19.689,4.613-37.413,5.009-75.47-3.864c-26.557-6.191-36.684-21.271-57.12-31.723
							c24.688-28.962,29.331-51.675,35.228-88.293c0.419-2.597,0.394-7.384,0.126-13.19c24.587,14.008,55.848,17.362,84.001,14.927
							C1246.28,544.022,1266.823,535.778,1284.35,523.008z"/>
						<g>
							<path style="fill:#FFB278;" d="M1281.937,554.783c-14.56-9.939-46.556,11.116-60.28,16.687
								c-21.477,8.717-84.382,45.207-115.295,36.219l-3.908,14.175c30.032,5.084,158.296,1.48,177.445-22.794
								C1287.86,588.978,1297.554,565.445,1281.937,554.783z"/>
							<g>
								<path style="fill:#FFB278;" d="M1120.355,623.465c-0.013-0.043-0.02-0.087-0.031-0.13
									C1120.232,623.442,1120.217,623.504,1120.355,623.465z"/>
								<path style="fill:#FFB278;" d="M1110.342,607.506c-4.425-1.426-5.552-2.317-10.006-1.333
									c-5.049,1.115-5.011,0.33-9.608-0.646c-3.992-0.848-6.481,0.693-9.966,2.083c-4.691,1.871-4.325,0.685-9.18,0.03
									c-7.63-1.028-17.676,16.693-23.612,19.645l72.217-4.526c-0.788-3.356-0.535-6.969-1.975-10.218
									C1115.973,607.495,1114.603,608.88,1110.342,607.506z"/>
								<path style="fill:#FFB278;" d="M1120.87,622.813l-0.684-0.053c0.045,0.192,0.085,0.385,0.138,0.575
									C1120.434,623.203,1120.656,623.002,1120.87,622.813z"/>
							</g>
							<g>
								<path style="fill:#FFFFFF;" d="M944.173,632.153c0.053,3.536,2.993,6.358,6.565,6.305l198.983-3.005
									c3.574-0.053,6.428-2.964,6.374-6.5l0,0c-0.054-3.534-2.994-6.358-6.568-6.303l-198.983,3.005
									C946.972,625.708,944.118,628.618,944.173,632.153L944.173,632.153z"/>
								<g>
									<g>
										<path style="fill:#C1C1C1;" d="M903.122,633.31c0.687,3.3,3.547,5.943,6.396,5.9l160.328-2.42
											c2.847-0.044,4.505-2.754,3.702-6.052l-30.242-124.275c-0.803-3.301-3.698-5.942-6.46-5.9l-155.749,2.351
											c-2.767,0.042-4.453,2.753-3.77,6.055L903.122,633.31z"/>
									</g>
									<g>
										<path style="fill:#FFFFFF;" d="M899.686,633.362c0.683,3.301,3.543,5.943,6.39,5.9l160.332-2.421
											c2.845-0.042,4.505-2.752,3.704-6.052l-30.15-124.277c-0.802-3.3-3.694-5.943-6.46-5.9l-155.75,2.352
											c-2.765,0.041-4.454,2.753-3.77,6.055L899.686,633.362z"/>
									</g>
									<g>
										<path style="fill:#626B72;" d="M965.849,569.997c0.739,3.304,3.62,5.949,6.431,5.906c2.813-0.042,4.489-2.756,3.744-6.06
											c-0.748-3.303-3.626-5.947-6.433-5.905C966.785,563.981,965.11,566.695,965.849,569.997z"/>
									</g>
								</g>
							</g>
							<path style="fill:#840D3E;" d="M1300.11,417.272c-7.418-8.329-19.73-15.497-31.329-8.959
								c-12.177,6.862-13.312,28.191-15.701,40.399c-4.417,22.562-5.236,45.744-8.895,68.564
								c-2.089,13.033-10.772,47.155-15.654,50.624l52.109,29.5C1296.441,585.209,1326.01,446.349,1300.11,417.272z"/>
						</g>
					</g>
					<g>
						<g>
							<path style="fill:#AE6542;" d="M733.868,710.802c-2.152,6.127-11.663,6.816-15.516,2.176
								c-2.351,5.668-11.703,1.294-14.257-1.47c-3.696-4.005-4.108-8.889-8.239-12.413c0.198,3.676-5.354,4.238-8.398,2.966
								c-3.855-1.608-3.833-5.022-5.377-7.747c-7.147,1.174-14.352-0.18-21.469,0.098c-7.648,0.299-15.411,0.18-23.257,1.453
								c-6.993,1.137-15.113,3.962-22.352,4.124c-6.298,0.137-7.734-4.061-7.173-8.4c0.375-2.985,1.691-6.036,3.01-7.785
								c6.169-8.198,13.684-9.76,22.278-10.516c0,0,47.876,3.238,54.333,3.178c7.948-0.074,11.609,0.479,17.761,4.311
								c4.818,2.995,10.435,5.348,15.535,8.064c5.156,2.75,12.268,3.445,16.541,7.059c0.146,0.124,0.294,0.254,0.433,0.384
								C741.458,699.801,745.484,715.821,733.868,710.802z"/>
							<path style="fill:#7F402D;" d="M733.868,710.802c-2.152,6.127-11.663,6.816-15.516,2.176
								c-2.351,5.668-11.703,1.294-14.257-1.47c-3.696-4.005-4.108-8.889-8.239-12.413c0.198,3.676-5.354,4.238-8.398,2.966
								c-3.855-1.608-3.833-5.022-5.377-7.747c-7.147,1.174-14.352-0.18-21.469,0.098c-7.648,0.299-15.411,0.18-23.257,1.453
								c-6.993,1.137-15.113,3.962-22.352,4.124c-6.298,0.137-7.734-4.061-7.173-8.4c0.439,1.992,2.003,3.413,5.615,3.722
								c6.654,0.569,14.148-0.756,20.848-1.506c12.515-1.401,25.158-2.624,37.535-2.15c4.239,0.164,9.215,0.651,13.235-0.676
								c0.635,8.59,8.615,7.085,10.854,0.622c0.984,3.539,3.709,6.823,5.514,10.113c1.698,3.081,3.653,5.528,6.97,7.017
								c2.703,1.211,6.664,2.273,8.925-0.263c2.168-2.428-0.328-7.11-1.075-9.712c3.003,2.408,4.03,12.769,8.252,11.525
								c6.906-2.026,3.26-11.233,1.724-15.244c3.093,2.164,3.761,11.108,7.653,11.178c3.516,0.066,3.932-5.153,3.908-7.521
								c-0.014-0.981-0.209-1.906-0.499-2.792c0.146,0.124,0.294,0.254,0.433,0.384
								C741.458,699.801,745.484,715.821,733.868,710.802z"/>
						</g>
						<path style="fill:#7F402D;" d="M490.536,708.18c-6.098-0.308-12.534-1.201-17.811-3.792c-6.092-2.989-9.35-7.247-8.218-13.479
							c1.425-7.851,6.39-16.808,12.103-23.254l-14.084-11.875c-0.491,3.023-4.074,6.389-5.429,9.404
							c-2.136,4.758-4.015,9.648-5.584,14.532c-2.541,7.91-4.54,20.325,1.245,27.305c4.702,5.671,16.68,5.365,24.104,4.922
							c6.601-0.395,13.267-0.98,19.812-1.587c2.094-0.195,4.266-0.326,6.208-0.638C499.578,708.314,494.258,708.367,490.536,708.18z
							"/>
						<path style="fill:#A3593D;" d="M591.37,624.588l-22.607,13.137c2.196-0.616-3.285,2.381-4.321,3.139
							c-3.043,2.224-6.056,4.531-9.064,6.923c-4.983,3.967-7.426,8.48-9.809,14.318c-3.451,8.461-6.215,16.311-8.88,24.995
							c-1.216,3.964-6.893,19.979-4.215,23.401c4.037,5.159,33.712,2.299,39.248,1.563c15.07-2,31.265-3.213,40.904-5.531
							c8.905-2.14,1.272-8.502,10.352-10.104c9.098-1.606,19.016-3.804,27.024-9.239c9.481-6.434,16.853-16.191,25.379-23.551
							c3.871-3.341,8.51-5.522,12.247-9.003C674.148,628.409,618.873,622.61,591.37,624.588z"/>
						<g>
							<path style="fill:#A3593D;" d="M552.985,703.502c-5.518,3.826-16.018,5.234-22.852,6.924
								c-7.645,1.894-16.257,3.08-23.988,3.617c-9.211,0.638-19.837,1.537-28.585-0.686c-3.296-0.837-5.66-2.003-7.396-3.422
								c-0.006,0.005-0.006,0.005-0.006-0.003c-4.107-3.361-4.673-8.158-5.645-13.417c-1.384-7.531-8.72-13.565-9.729-21.423
								c-0.621-4.827,1.847-9.524,3.144-14.479c4.154-15.853,28.384-26.146,28.384-26.146l27.992,21.855
								c3.992,12.726,18.877,17.242,29.348,26.633c3.096,2.781,9.663,8.427,11.457,13.542c0.109,0.299,0.193,0.599,0.262,0.895
								C555.932,699.686,555.39,701.831,552.985,703.502z"/>
							<path style="fill:#A3593D;" d="M657.28,646.698c-1.382-2.433,7.667,0.406,6.303-2.039
								c-27.531-9.247-55.413-29.368-153.244-17.981c-17.631,2.052-32.897,11.073-42.532,23.044
								c-6.271,7.791-5.814,21.113,0.482,28.053c6.766,7.456,24.94,4.03,35.265,7.06c13.561,3.978,23.93,10.938,36.303,16.355
								c7.582,3.32,11.687-2.881,17.91-6.406c8.424-4.774,17.452-8.202,26.681-11.901c9.67-3.875,18.085-8.101,24.853-14.688
								c5.184-5.045,11.324-9.323,18.511-11.999l32.03-5.059C658.979,649.661,658.126,648.183,657.28,646.698z"/>
							<g>
								<g>
									<path style="fill:#723328;" d="M537.756,705.734c-5.518,3.827-0.79,3.002-7.623,4.693
										c-7.645,1.894-16.257,3.08-23.988,3.617c-9.211,0.638-19.837,1.537-28.585-0.686c-3.296-0.837-5.66-2.003-7.396-3.422
										c4.391,1.112,9.235,1.107,14.978,0.334c7.375-0.994,18.126-2.232,23.811-5.999c4.051-2.683,2.399-2.78-0.741-5.378
										c-3.716-3.078-8.249-5.617-12.114-8.7c-2.589-2.07-4.818-4.449-6.751-6.973c-2.985-3.893-5.264-8.146-7.121-12.206
										c4.249,3.953,8.078,8.414,12.499,12.494c5.416,5.007,11.734,9.431,20.81,11.597c5.276,1.261,8.913,2.233,12.013,2.468
										c16.968,1.29,27.475-9.426,27.475-9.426S540.16,704.061,537.756,705.734z"/>
								</g>
								<path style="fill:#7F402D;" d="M636.443,705.695c-0.025-0.001-0.05-0.002-0.077-0.003c0.019,0.01,0.032,0.021,0.05,0.029
									C636.648,705.838,636.657,705.83,636.443,705.695z"/>
							</g>
						</g>
						<path style="fill:#8E4832;" d="M616.359,629.675c-7.963,1.998-15.392,6.946-23.254,10.264
							c-7.427,3.136-17.095,5.669-20.941,13.647c-3.763,7.805-0.803,17.258-5.384,25.558c-4.66,8.44-4.871,13.086-4.323,22.687
							c12.899-0.858,24.245,0.222,36.874-3.753c6.252-1.968,11.448-5.377,17.626-7.533c5.418-1.891,14.498-0.828,18.765-4.549
							l14.356-58.992C643.68,627.43,624.592,627.61,616.359,629.675z"/>
						<g>
							<g>
								<path style="fill:#723328;" d="M701.536,648.109c-0.492-6.96-2.536-10.456-8.69-12.382
									c-5.273-1.648-9.622-5.483-14.756-7.359c-2.573-0.942-5.567-1.03-8.35-1.285c-2.467-0.225-6.452,0.553-8.197-0.146
									l4.851,13.388c2.048,10.673,13.02,12.171,18.979,20.143c4.523,6.052,8.412,12.993,9.209,20.62
									c0.595-3.049,1.96-6.041,3.008-9.009C700.417,664.083,702.149,656.692,701.536,648.109z"/>
								<path style="fill:#382F2D;" d="M709.443,700.485c-2.311-2.471-11.521-2.749-14.529-1.844l-14.319,13.507
									c3.967-0.586,7.439-0.947,11.718-0.885c4.038,0.059,7.785-0.911,11.545-2.645
									C706.826,707.252,712.816,704.089,709.443,700.485z"/>
								<path style="fill:#AE6542;" d="M676.451,635.437c-2.354-5.245-17.392-14.285-36.956-6.935
									c-43.685,16.409-38.249,23.523-34.627,39.285c3.361,14.629,10.137,15.323,22.034,30.132
									c8.673,10.798,27.569,28.992,39.028,17.25c4.129-4.231,14.042-27.447,16.256-32.688c3.121-7.394,12.88-9.327,13.401-17.035
									C696.747,648.322,682.351,648.583,676.451,635.437z"/>
								<g>
									<path style="fill:#723328;" d="M695.546,667.619c-0.471,4.829-3.433,8.478-6.612,8.151
										c-3.179-0.327-5.375-4.506-4.902-9.334c0.469-4.829,3.43-8.479,6.609-8.152C693.821,658.61,696.019,662.79,695.546,667.619
										z"/>
									<g>
										<path style="fill:#191413;" d="M692.988,666.833c-0.265,2.734-1.942,4.799-3.741,4.614
											c-1.801-0.186-3.041-2.551-2.776-5.283c0.268-2.734,1.943-4.799,3.742-4.614
											C692.013,661.734,693.256,664.1,692.988,666.833z"/>
										<path style="fill:#FFFFFF;" d="M691.625,666.194c-0.054,0.535-0.316,0.947-0.585,0.92
											c-0.27-0.028-0.446-0.486-0.393-1.021c0.052-0.535,0.313-0.947,0.584-0.919
											C691.5,665.202,691.675,665.658,691.625,666.194z"/>
									</g>
								</g>
								<path style="fill:#723328;" d="M713.219,701.223c-0.59,2.939-1.399,3.926-2.553,3.912c-1.138-0.013-2.616-0.996-4.542-2.029
									c-0.601-0.323-1.187-0.571-1.778-0.773c-1.339-0.462-2.7-0.676-4.233-0.905c-0.708-0.105-1.234,0.17-1.632,0.061
									c-0.246-0.061-0.446-0.276-0.616-0.794c-0.297-0.919,1.571-3.361,1.903-4.189c1.314-3.271,1.567-6.641,0.858-10.095
									c-0.41-1.997-2.115-5.083-1.186-6.984l5.916-2.406l0.23-0.097C707.687,684.728,714.969,692.452,713.219,701.223z"/>
								<path style="fill:#723328;" d="M704.254,687.296c-1.024-3.815,2.61-6.18,1.283-9.854c-0.054-0.147-0.112-0.289-0.182-0.421
									c-1.022-2.13-12.344-6.355-14.908-7.989c-3.201-2.04-5.758-5.681-7.872-8.849c-1.581-2.37-1.924-5.875-3.853-7.705
									c-1.937-1.839-6.99,0.248-7.442,2.63c-0.917,4.836,3.575,8.101,3.916,12.685c0.41,5.524-2.258,11.095-7.035,13.81
									c-5.293,3.008-12.108,1.932-17.16,5.123c-8.025,5.07-0.462,35.145,14.317,32.046c4.407-0.923,8.481-2.697,12.421-4.791
									c3.907-2.08,7.689-4.482,11.52-6.669c3.19-1.82,6.883-3.102,10.391-3.832c1.739-0.365,3.384-0.541,4.695-1.148
									c0.737-0.338,1.367-0.806,1.847-1.524c0.457-0.684,0.783-1.596,0.928-2.825
									C707.579,694.076,705.258,691.046,704.254,687.296z"/>
								<path style="fill:#191413;" d="M710.666,705.135c-1.138-0.013-2.616-0.996-4.542-2.029
									c-0.601-0.323-1.187-0.571-1.778-0.773c-1.312,0.607-2.957,0.783-4.695,1.148c-3.508,0.73-7.201,2.013-10.391,3.832
									c-3.831,2.188-7.613,4.589-11.52,6.669c6.131-5.714,12.933-9.256,20.741-12.493c0.011-0.005,0.017-0.009,0.027-0.013
									c4.52-1.882,4.547-5.249,4.326-9.681c-0.163-3.372-0.248-8.961-3.242-11.307l0.076-0.776
									c5.253,3.226,4.743,14.507,4.501,20.011c0.734,0.327,1.402,0.688,2.024,1.086
									C708.024,701.974,709.432,703.431,710.666,705.135z"/>
								<path style="fill:#191413;" d="M707.85,675.581c-1.486-4.382-6.278-3.877-9.697-3.681c-3.694,0.211-7.965,0.006-9.458,4.199
									c-1.665,4.68,2.931,7.723,6.806,8.714c0,0,6.899,4.39,7.764,4.628c0.673-0.97,1.289-1.943,1.841-2.953
									C706.646,683.69,708.958,678.847,707.85,675.581z"/>
								<path style="fill:#723328;" d="M641.923,642.006c-2.434-0.923-5.135-1.773-7.553-2.972
									c-5.098-2.532-11.575-4.534-17.436-3.71c-6.859,0.964-11.237,6.908-16.778,10.651c-5.026,3.399-9.973,7.457-11.634,13.861
									c-1.752,6.752,2.945,8.877,6.571,13.555c3.351,4.324,1.804,10.407,4.215,15.432c2.985,6.22,16.758,32.295,24.882,21.97
									c2.947-3.745,4.448-9.57,4.911-14.388c0.623-6.457,0.646-11.659,2.422-17.883c1.701-5.96-0.181-12.027,0.405-18.055
									c0.709-7.302,6.471-8.425,12.051-11.302l3.858-4.48C645.893,644.455,643.768,642.707,641.923,642.006z"/>
								<g>
									<path style="fill:#723328;" d="M663.7,669.656c-0.472,4.828-3.867,8.433-7.584,8.052c-3.718-0.383-6.349-4.607-5.877-9.436
										c0.471-4.829,3.867-8.433,7.583-8.052C661.54,660.602,664.172,664.827,663.7,669.656z"/>
									<g>
										<path style="fill:#191413;" d="M660.702,668.825c-0.268,2.732-2.19,4.773-4.292,4.557
											c-2.104-0.217-3.593-2.607-3.325-5.34c0.265-2.733,2.186-4.773,4.293-4.557C659.482,663.7,660.97,666.092,660.702,668.825
											z"/>
										<path style="fill:#FFFFFF;" d="M659.099,668.16c-0.052,0.536-0.348,0.944-0.667,0.912
											c-0.315-0.032-0.528-0.493-0.476-1.029c0.054-0.536,0.35-0.943,0.667-0.911
											C658.938,667.164,659.152,667.624,659.099,668.16z"/>
									</g>
								</g>
							</g>
							<path style="fill:#723328;" d="M658.103,643.484c-2.945,0.146-7.31,1.924-8.52,5.033c-1.408,3.617,2.037,6.177,5.409,5.814
								l0.449,0.178C659.966,653.311,668.314,642.982,658.103,643.484z"/>
							<path style="fill:#723328;" d="M692.444,644.637c-2.191-2.011-6.522-3.888-9.536-2.557c-3.504,1.549-2.832,5.834-0.186,8
								l0.195,0.448C686.96,652.931,700.043,651.618,692.444,644.637z"/>
						</g>
						<g>
							<path style="fill:#A3593D;" d="M645.769,719.29c-1.883,6.407-11.613,7.621-15.818,3.063
								c-2.113,5.946-11.95,1.953-14.721-0.75c-4.009-3.915-4.693-8.909-9.123-12.308c0.4,3.765-5.272,4.638-8.468,3.495
								c-4.045-1.447-4.205-4.953-5.934-7.67c-7.279,1.587-14.75,0.582-22.045,1.247c-7.839,0.715-15.818,1.007-23.807,2.732
								c-7.122,1.543-15.311,4.876-22.737,5.43c-6.46,0.476-8.158-3.76-7.814-8.245c0.225-3.086,1.415-6.289,2.676-8.157
								c5.898-8.748,13.533-10.753,22.317-11.988c0,0,49.343,0.77,55.967,0.364c8.163-0.501,11.951-0.128,18.476,3.479
								c5.105,2.82,11,4.936,16.383,7.454c5.44,2.55,12.781,2.883,17.363,6.367c0.156,0.12,0.315,0.246,0.467,0.371
								C652.979,707.586,657.966,723.826,645.769,719.29z"/>
							<path style="fill:#7F402D;" d="M645.769,719.29c-1.883,6.407-11.613,7.621-15.818,3.063
								c-2.113,5.946-11.95,1.953-14.721-0.75c-4.009-3.915-4.693-8.909-9.123-12.308c0.4,3.765-5.272,4.638-8.468,3.495
								c-4.045-1.447-4.205-4.953-5.934-7.67c-7.279,1.587-14.75,0.582-22.045,1.247c-7.839,0.715-15.818,1.007-23.807,2.732
								c-7.122,1.543-15.311,4.876-22.737,5.43c-6.46,0.476-8.158-3.76-7.814-8.245c0.557,2.022,2.239,3.399,5.965,3.521
								c6.864,0.231,14.487-1.53,21.329-2.657c12.779-2.106,25.699-4.038,38.436-4.211c4.359-0.059,9.498,0.176,13.555-1.402
								c1.113,8.788,9.225,6.817,11.182,0.06c1.199,3.582,4.174,6.809,6.203,10.092c1.906,3.074,4.045,5.482,7.531,6.834
								c2.841,1.101,6.966,1.979,9.155-0.747c2.094-2.61-0.718-7.285-1.624-9.917c3.213,2.313,4.82,12.9,9.09,11.396
								c6.984-2.449,2.75-11.71,0.957-15.747c3.291,2.057,4.457,11.208,8.456,11.071c3.615-0.121,3.764-5.503,3.61-7.932
								c-0.065-1.008-0.314-1.947-0.661-2.842c0.156,0.12,0.315,0.246,0.467,0.371C652.979,707.586,657.966,723.826,645.769,719.29z
								"/>
						</g>
					</g>
					<g>
						<path style="fill:#C64B1A;" d="M568.404,702.872c3.713,42.595-3.771,86.196-21.562,125.125
							c-11.524-0.052-23.053-0.158-34.575-0.263c-7.115-38.558-14.073-81.415-19.653-124.81
							C517.893,702.924,543.122,702.872,568.404,702.872z"/>
						<path style="fill:#FF953E;" d="M1311.19,824.226c-0.478,0.693-0.957,1.384-1.495,2.07
							c-253.378,3.083-505.384,3.824-762.854,1.699c17.791-38.929,25.276-82.53,21.562-125.125
							c80.353-0.053,160.705-0.105,241.062-0.158c8.709,0,17.418,0,26.128,0c14.179,0,28.417,0,42.591,0
							c107.816-0.053,215.785,0.426,323.438,5.681c37.126,1.755,74.193,4.091,111.261,7.173c4.202,0.315,8.341,0.689,12.537,1.062
							C1338.696,751.894,1333.12,793.584,1311.19,824.226z"/>
						<path style="fill:#C64B1A;" d="M1201.622,708.394c10.346,0.095,20.683,0.507,31.024,0.761l31.01,1.297
							c10.34,0.417,20.659,1.129,30.995,1.68c10.328,0.603,20.668,1.058,30.981,2.097l1.532,0.152l0.511,1.397
							c6.587,18.065,8.624,37.748,5.639,56.632c-2.872,18.868-10.366,37.053-22.123,51.817
							c10.159-15.855,16.437-33.887,18.509-52.297c1.971-18.39,0.164-37.269-6.536-54.453l2.043,1.55
							c-10.284-0.871-20.578-1.709-30.89-2.398c-10.303-0.78-20.616-1.397-30.914-2.307l-30.895-2.699
							C1222.219,710.552,1211.911,709.633,1201.622,708.394z"/>
					</g>
					<g>
						<path style="fill:#B5421A;" d="M398.08,584.279c28.785,2.34,57.148,6.695,84.281,13.064
							c-29.21-4.939-59.484-3.718-89.009-1.646c-49.127-3.293-102.551-3.981-158.848-2.972
							c32.445-6.322,66.546-9.772,100.905-10.409C356.337,581.944,377.311,582.58,398.08,584.279z"/>
						<path style="fill:#B5421A;" d="M415.605,760.813c7.226,26.076,18.217,60.335,44.878,67.877
							c-4.777,0.052-9.562,0.105-14.337,0.158c-48.17,0.372-94.905-0.21-143.237-2.073c-2.867-0.106-5.733-0.21-8.604-0.32
							c-16.356-0.69-31.335-12.744-41.159-25.808c-9.878-13.065-15.773-28.68-20.233-44.399
							c-14.926-52.525-13.117-110.999,1.593-163.524c56.296-1.01,109.72-0.321,158.848,2.972
							C389.371,651.356,401.689,710.255,415.605,760.813z"/>
						<path style="fill:#FF953E;" d="M492.613,702.924c5.58,43.395,12.538,86.252,19.653,124.81
							c-17.576,0.425-34.787,0.741-51.783,0.957c-26.66-7.542-37.652-41.801-44.878-67.877
							c-13.917-50.558-26.234-109.457-22.253-165.116c29.525-2.072,59.799-3.293,89.009,1.646
							C484.439,631.544,488.047,667.397,492.613,702.924z"/>
					</g>
				</g>
			</g>
			<g>
				<path style="fill:#475E23;" d="M226.592,860.259c4.531-6.064,5.898-14.043,6.87-21.367c1.309-9.86,1.38-19.888,1.347-29.816
					c-0.038-11.783-0.182-23.538,0.003-35.321c0.371-23.681,0.29-47.372-0.072-71.053c-1.118-73.241-4.808-146.724-14.662-219.35
					c-3.754-27.663-8.522-55.232-15.22-82.344c-5.629-22.784-12.635-45.586-23.403-66.517c-0.668-1.3-2.813-0.484-2.135,0.833
					c14.175,27.552,22.063,58.216,28.365,88.391c7.687,36.809,12.459,74.214,16.062,111.623
					c6.561,68.099,8.965,136.634,9.02,205.031c0.011,13.852-0.083,27.705-0.377,41.554c-0.246,11.619,0.244,23.238,0.116,34.858
					c-0.089,8.025-0.478,16.068-1.621,24.018c-0.887,6.177-2.255,12.909-6.066,18.008
					C223.935,859.99,225.707,861.443,226.592,860.259L226.592,860.259z"/>
				<path style="fill:#475E23;" d="M301.605,401.668c-13.014,18.521-26.078,37.097-34.814,58.097
					c-9.938,23.89-18.258,49.351-23.678,74.674c-8.744,40.849-6.993,83.354-10.855,124.772c-0.137,1.464,2.126,1.832,2.264,0.359
					c3.767-40.404,2.652-81.441,10.187-121.446c2.075-11.018,5.378-21.822,8.547-32.563c4.147-14.052,8.85-27.94,14.279-41.55
					c8.823-22.121,22.222-41.506,35.843-60.89C304.224,401.916,302.454,400.458,301.605,401.668L301.605,401.668z"/>
				<path style="fill:#475E23;" d="M171.599,555.545c9.331,13.624,18.77,27.285,26.15,42.097
					c8.318,16.697,13.449,35.304,18.189,53.276c10.228,38.787,14.7,78.071,16.506,118.071c0.067,1.476,2.344,1.216,2.278-0.255
					c-1.789-39.666-6.315-78.493-16.218-116.999c-4.782-18.593-10.211-37.609-18.619-54.928c-7.3-15.038-17.008-28.854-26.431-42.61
					C172.617,552.976,170.764,554.327,171.599,555.545L171.599,555.545z"/>
				<g>
					<path style="fill:#698E38;" d="M203.22,396.55l-1.75-2.409c-0.025-0.02-0.051-0.037-0.084-0.056
						c-17.073-12.527-138.79-72.937-78.976-106.87c48.226-27.362,71.028,65.068,79.135,101.658
						C202.192,391.825,202.756,394.415,203.22,396.55z"/>
					<path style="fill:#475E23;" d="M203.22,396.55l-1.75-2.409c-0.025-0.02-0.051-0.037-0.084-0.056
						c-0.917-1.786-1.895-3.64-2.885-5.559c-0.443-0.838-0.867-1.702-1.344-2.552c-0.476-0.85-0.959-1.707-1.438-2.58
						c-0.96-1.744-1.943-3.52-2.943-5.327c-2.1-3.565-4.212-7.277-6.522-10.953c-1.151-1.84-2.244-3.733-3.461-5.559
						c-1.203-1.831-2.417-3.674-3.624-5.514c-1.184-1.857-2.487-3.634-3.721-5.451c-0.623-0.901-1.242-1.802-1.868-2.697
						c-0.626-0.895-1.292-1.754-1.935-2.63c-1.281-1.738-2.562-3.476-3.82-5.182c-1.313-1.671-2.607-3.32-3.887-4.937
						c-0.647-0.806-1.255-1.634-1.914-2.4c-0.651-0.778-1.305-1.543-1.945-2.306c-1.281-1.51-2.497-3.032-3.758-4.448
						c-1.27-1.401-2.511-2.763-3.71-4.077c-0.592-0.663-1.178-1.316-1.758-1.955c-0.599-0.614-1.194-1.213-1.768-1.801
						c-1.163-1.187-2.27-2.314-3.321-3.391c-0.516-0.559-1.047-1.062-1.575-1.544c-0.52-0.487-1.027-0.958-1.516-1.419
						c-1.98-1.813-3.624-3.495-5.144-4.709c-1.487-1.245-2.633-2.257-3.422-2.937c-0.687-0.593-1.093-0.949-1.187-1.026
						c0.103,0.065,0.553,0.364,1.304,0.874c0.858,0.591,2.132,1.432,3.726,2.539c1.623,1.059,3.452,2.557,5.588,4.245
						c0.537,0.419,1.087,0.855,1.655,1.308c0.569,0.445,1.149,0.914,1.708,1.422c1.139,1.019,2.334,2.083,3.58,3.197
						c0.622,0.559,1.263,1.13,1.91,1.71c0.621,0.61,1.255,1.228,1.902,1.857c1.277,1.275,2.597,2.586,3.952,3.945
						c1.339,1.37,2.64,2.849,4.012,4.324c1.373,1.475,2.743,2.999,4.062,4.631c1.339,1.604,2.698,3.242,4.078,4.896
						c1.33,1.69,2.648,3.419,3.97,5.17c0.657,0.879,1.343,1.748,1.983,2.645c0.638,0.905,1.276,1.809,1.922,2.714
						c1.259,1.828,2.597,3.616,3.813,5.487c1.211,1.869,2.42,3.745,3.623,5.612c1.212,1.856,2.3,3.784,3.445,5.656
						c0.569,0.938,1.132,1.872,1.687,2.805c0.563,0.928,1.057,1.895,1.583,2.831c1.031,1.882,2.05,3.75,3.061,5.58
						c0.964,1.85,1.896,3.676,2.792,5.474c0.447,0.901,0.896,1.79,1.332,2.669c0.436,0.88,0.829,1.766,1.231,2.633
						c0.239,0.514,0.47,1.021,0.705,1.519C202.192,391.825,202.756,394.415,203.22,396.55z"/>
				</g>
				<g>
					<path style="fill:#698E38;" d="M212.642,638.431l-1.75-2.411c-0.026-0.018-0.051-0.035-0.083-0.055
						c-17.075-12.528-138.79-72.937-78.976-106.87c48.226-27.363,71.027,65.068,79.134,101.658
						C211.615,633.705,212.179,636.296,212.642,638.431z"/>
					<path style="fill:#475E23;" d="M212.642,638.431l-1.75-2.411c-0.026-0.018-0.051-0.035-0.083-0.055
						c-0.917-1.788-1.896-3.641-2.886-5.56c-0.442-0.837-0.868-1.701-1.343-2.55c-0.477-0.851-0.959-1.709-1.439-2.581
						c-0.959-1.744-1.943-3.519-2.943-5.327c-2.099-3.567-4.212-7.277-6.522-10.954c-1.151-1.838-2.244-3.732-3.46-5.56
						c-1.202-1.831-2.418-3.672-3.625-5.513c-1.184-1.858-2.488-3.635-3.72-5.45c-0.625-0.902-1.242-1.804-1.868-2.698
						c-0.625-0.896-1.292-1.754-1.936-2.632c-1.281-1.738-2.561-3.475-3.818-5.181c-1.313-1.672-2.609-3.319-3.887-4.937
						c-0.646-0.806-1.254-1.634-1.914-2.399c-0.652-0.779-1.305-1.543-1.945-2.306c-1.281-1.51-2.497-3.033-3.758-4.447
						c-1.27-1.403-2.511-2.764-3.71-4.078c-0.591-0.663-1.177-1.317-1.758-1.955c-0.598-0.615-1.193-1.214-1.768-1.802
						c-1.163-1.186-2.27-2.314-3.322-3.39c-0.516-0.558-1.047-1.061-1.574-1.543c-0.52-0.489-1.028-0.96-1.516-1.42
						c-1.979-1.814-3.624-3.496-5.145-4.711c-1.487-1.245-2.634-2.258-3.422-2.937c-0.689-0.592-1.093-0.948-1.187-1.027
						c0.102,0.066,0.552,0.365,1.303,0.875c0.859,0.59,2.133,1.431,3.727,2.537c1.623,1.061,3.453,2.558,5.587,4.247
						c0.539,0.419,1.087,0.856,1.656,1.306c0.569,0.445,1.148,0.914,1.707,1.422c1.14,1.019,2.335,2.083,3.579,3.197
						c0.623,0.56,1.265,1.13,1.911,1.71c0.621,0.61,1.255,1.229,1.901,1.858c1.275,1.275,2.597,2.586,3.952,3.945
						c1.338,1.37,2.64,2.849,4.011,4.324c1.373,1.476,2.744,3,4.063,4.63c1.337,1.605,2.698,3.243,4.078,4.897
						c1.331,1.689,2.648,3.418,3.969,5.169c0.656,0.88,1.344,1.748,1.983,2.645c0.638,0.905,1.277,1.81,1.922,2.715
						c1.259,1.827,2.597,3.616,3.814,5.485c1.21,1.87,2.418,3.747,3.622,5.613c1.212,1.856,2.299,3.783,3.446,5.656
						c0.569,0.936,1.131,1.871,1.687,2.803c0.564,0.929,1.057,1.896,1.584,2.832c1.031,1.882,2.05,3.749,3.06,5.58
						c0.965,1.852,1.897,3.677,2.792,5.474c0.447,0.902,0.896,1.789,1.333,2.67c0.436,0.879,0.828,1.766,1.231,2.633
						c0.238,0.514,0.471,1.02,0.704,1.52C211.615,633.705,212.179,636.296,212.642,638.431z"/>
				</g>
				<g>
					<path style="fill:#698E38;" d="M234.021,708.645l0.867-2.849c-0.002-0.031-0.003-0.061-0.006-0.101
						c-0.304-21.173-25.519-154.697,37.622-127.448c50.909,21.968-9.071,95.898-33.369,124.432
						C237.17,704.976,235.442,706.988,234.021,708.645z"/>
					<path style="fill:#475E23;" d="M234.021,708.645l0.867-2.849c-0.002-0.031-0.003-0.061-0.006-0.101
						c0.872-1.809,1.76-3.708,2.694-5.653c0.401-0.858,0.833-1.718,1.226-2.611c0.389-0.893,0.783-1.795,1.189-2.705
						c0.813-1.817,1.637-3.672,2.475-5.56c1.578-3.826,3.264-7.748,4.805-11.808c0.772-2.027,1.624-4.04,2.347-6.114
						c0.736-2.063,1.473-4.143,2.212-6.216c0.768-2.065,1.4-4.175,2.104-6.254c0.343-1.042,0.69-2.077,1.026-3.116
						c0.338-1.04,0.621-2.089,0.933-3.131c0.613-2.07,1.227-4.14,1.829-6.171c0.542-2.056,1.076-4.083,1.594-6.077
						c0.253-1.001,0.548-1.988,0.761-2.975c0.228-0.989,0.444-1.971,0.665-2.942c0.433-1.932,0.914-3.82,1.282-5.679
						c0.353-1.858,0.691-3.669,1.015-5.418c0.173-0.87,0.341-1.732,0.5-2.581c0.129-0.849,0.247-1.685,0.371-2.497
						c0.245-1.645,0.477-3.207,0.702-4.695c0.134-0.748,0.216-1.475,0.282-2.187c0.073-0.708,0.144-1.398,0.217-2.065
						c0.253-2.673,0.602-5,0.654-6.945c0.096-1.938,0.213-3.463,0.28-4.501c0.058-0.906,0.098-1.444,0.103-1.566
						c0.009,0.122,0.042,0.661,0.088,1.568c0.047,1.041,0.145,2.565,0.223,4.502c0.132,1.935,0.042,4.298-0.018,7.019
						c-0.01,0.682-0.025,1.382-0.045,2.108c-0.012,0.723-0.036,1.467-0.104,2.219c-0.126,1.524-0.254,3.119-0.393,4.784
						c-0.069,0.834-0.139,1.689-0.21,2.554c-0.113,0.864-0.224,1.743-0.336,2.637c-0.247,1.787-0.496,3.631-0.762,5.532
						c-0.286,1.894-0.682,3.823-1.03,5.807c-0.351,1.985-0.739,3.998-1.244,6.034c-0.473,2.034-0.958,4.107-1.447,6.206
						c-0.545,2.081-1.13,4.174-1.73,6.284c-0.305,1.053-0.585,2.126-0.913,3.177c-0.338,1.053-0.674,2.109-1.007,3.169
						c-0.697,2.107-1.318,4.252-2.076,6.351c-0.762,2.093-1.53,4.188-2.292,6.275c-0.749,2.086-1.631,4.116-2.434,6.159
						c-0.403,1.02-0.81,2.032-1.22,3.037c-0.4,1.01-0.874,1.987-1.303,2.972c-0.881,1.956-1.756,3.896-2.605,5.805
						c-0.896,1.885-1.789,3.732-2.684,5.529c-0.45,0.901-0.888,1.794-1.327,2.672c-0.438,0.879-0.909,1.727-1.357,2.571
						c-0.267,0.499-0.53,0.989-0.788,1.477C237.17,704.976,235.442,706.988,234.021,708.645z"/>
				</g>
				<g>
					<path style="fill:#698E38;" d="M267.166,464.717l1.574-1.891c0.023-0.014,0.044-0.027,0.072-0.042
						c14.761-9.397,118.415-52.572,70.946-83.811c-38.275-25.192-62.113,49.777-70.793,79.504
						C268.271,460.876,267.664,462.983,267.166,464.717z"/>
					<path style="fill:#475E23;" d="M267.166,464.717l1.574-1.891c0.023-0.014,0.044-0.027,0.072-0.042
						c0.854-1.423,1.762-2.898,2.684-4.427c0.408-0.667,0.807-1.355,1.246-2.031c0.439-0.674,0.883-1.355,1.327-2.049
						c0.886-1.385,1.794-2.796,2.717-4.232c1.926-2.825,3.869-5.77,5.975-8.676c1.049-1.454,2.053-2.954,3.156-4.395
						c1.092-1.445,2.193-2.897,3.289-4.348c1.078-1.469,2.248-2.861,3.364-4.291c0.563-0.71,1.122-1.42,1.686-2.123
						c0.566-0.704,1.162-1.377,1.741-2.065c1.149-1.362,2.301-2.725,3.431-4.064c1.174-1.306,2.332-2.595,3.474-3.857
						c0.577-0.63,1.124-1.282,1.709-1.875c0.581-0.606,1.16-1.201,1.729-1.795c1.139-1.175,2.225-2.363,3.341-3.462
						c1.124-1.087,2.22-2.142,3.282-3.159c0.522-0.514,1.041-1.022,1.555-1.516c0.527-0.475,1.05-0.937,1.556-1.39
						c1.024-0.916,1.998-1.784,2.924-2.616c0.456-0.431,0.921-0.817,1.382-1.186c0.457-0.372,0.9-0.734,1.328-1.086
						c1.732-1.389,3.18-2.685,4.5-3.604c1.293-0.945,2.293-1.718,2.981-2.234c0.599-0.452,0.953-0.722,1.035-0.783
						c-0.088,0.049-0.476,0.271-1.122,0.65c-0.74,0.441-1.837,1.066-3.211,1.89c-1.396,0.786-2.986,1.921-4.84,3.197
						c-0.465,0.316-0.942,0.643-1.435,0.988c-0.492,0.336-0.996,0.692-1.484,1.079c-0.997,0.78-2.04,1.59-3.128,2.441
						c-0.544,0.427-1.103,0.863-1.669,1.306c-0.545,0.469-1.101,0.945-1.669,1.428c-1.122,0.982-2.281,1.99-3.473,3.036
						c-1.179,1.057-2.333,2.206-3.543,3.347c-1.212,1.142-2.426,2.323-3.602,3.596c-1.191,1.25-2.402,2.526-3.629,3.814
						c-1.19,1.321-2.371,2.676-3.557,4.047c-0.589,0.689-1.202,1.369-1.779,2.074c-0.576,0.711-1.151,1.421-1.733,2.133
						c-1.137,1.436-2.337,2.838-3.443,4.314c-1.101,1.476-2.199,2.958-3.294,4.431c-1.099,1.463-2.102,2.993-3.15,4.475
						c-0.52,0.741-1.035,1.48-1.543,2.22c-0.516,0.734-0.974,1.505-1.462,2.248c-0.951,1.495-1.893,2.979-2.826,4.434
						c-0.896,1.473-1.764,2.928-2.6,4.361c-0.418,0.719-0.837,1.426-1.244,2.129c-0.407,0.702-0.78,1.41-1.16,2.104
						c-0.224,0.409-0.443,0.816-0.663,1.214C268.271,460.876,267.664,462.983,267.166,464.717z"/>
				</g>
				<g>
					<path style="fill:#698E38;" d="M237.318,573.091l1.65-2.44c0.025-0.02,0.049-0.039,0.079-0.058
						c16.468-12.95,134.817-76.695,74.558-108.27c-48.587-25.462-68.078,66.676-74.887,103.121
						C238.178,568.384,237.705,570.967,237.318,573.091z"/>
					<path style="fill:#475E23;" d="M237.318,573.091l1.65-2.44c0.025-0.02,0.049-0.039,0.079-0.058
						c0.85-1.797,1.754-3.663,2.671-5.594c0.408-0.843,0.801-1.71,1.243-2.567c0.444-0.856,0.891-1.72,1.338-2.598
						c0.891-1.755,1.805-3.545,2.734-5.364c1.959-3.596,3.924-7.334,6.087-11.046c1.076-1.856,2.096-3.764,3.238-5.611
						c1.129-1.851,2.269-3.711,3.402-5.57c1.11-1.878,2.338-3.674,3.498-5.512c0.588-0.912,1.167-1.824,1.757-2.729
						c0.591-0.905,1.221-1.776,1.829-2.665c1.208-1.76,2.417-3.521,3.604-5.249c1.243-1.695,2.469-3.369,3.68-5.007
						c0.614-0.819,1.186-1.659,1.813-2.437c0.619-0.791,1.24-1.569,1.845-2.343c1.218-1.535,2.369-3.08,3.569-4.522
						c1.211-1.427,2.392-2.815,3.535-4.153c0.563-0.674,1.12-1.341,1.672-1.991c0.573-0.628,1.139-1.24,1.69-1.84
						c1.112-1.211,2.168-2.362,3.172-3.463c0.492-0.567,1.001-1.083,1.505-1.578c0.499-0.498,0.987-0.981,1.452-1.452
						c1.899-1.859,3.469-3.574,4.933-4.827c1.428-1.28,2.527-2.319,3.286-3.016c0.659-0.61,1.049-0.973,1.138-1.056
						c-0.1,0.069-0.535,0.38-1.26,0.91c-0.829,0.611-2.062,1.486-3.601,2.631c-1.569,1.102-3.33,2.644-5.385,4.385
						c-0.517,0.431-1.046,0.878-1.591,1.346c-0.547,0.459-1.106,0.941-1.642,1.461c-1.094,1.047-2.239,2.138-3.435,3.28
						c-0.596,0.574-1.21,1.16-1.832,1.756c-0.593,0.622-1.199,1.255-1.818,1.899c-1.219,1.302-2.48,2.64-3.776,4.03
						c-1.278,1.399-2.517,2.903-3.824,4.407c-1.308,1.504-2.614,3.056-3.864,4.711c-1.269,1.632-2.56,3.295-3.869,4.975
						c-1.261,1.716-2.505,3.469-3.756,5.244c-0.618,0.889-1.269,1.772-1.873,2.682c-0.602,0.914-1.203,1.828-1.812,2.747
						c-1.183,1.847-2.446,3.659-3.587,5.549c-1.136,1.888-2.269,3.784-3.398,5.669c-1.137,1.874-2.149,3.816-3.219,5.705
						c-0.533,0.945-1.058,1.887-1.575,2.829c-0.528,0.936-0.982,1.909-1.474,2.852c-0.956,1.895-1.901,3.774-2.84,5.619
						c-0.893,1.86-1.754,3.696-2.58,5.503c-0.413,0.906-0.827,1.8-1.229,2.685c-0.402,0.884-0.763,1.773-1.132,2.643
						c-0.218,0.516-0.432,1.025-0.647,1.526C238.178,568.384,237.705,570.967,237.318,573.091z"/>
				</g>
				<g>
					<path style="fill:#698E38;" d="M234.47,749.409l-1.38-2.038c-0.02-0.017-0.041-0.032-0.068-0.05
						c-13.757-10.813-112.624-64.04-62.294-90.425c40.58-21.278,56.877,55.685,62.568,86.125
						C233.751,745.478,234.145,747.634,234.47,749.409z"/>
					<path style="fill:#475E23;" d="M234.47,749.409l-1.38-2.038c-0.02-0.017-0.041-0.032-0.068-0.05
						c-0.708-1.499-1.464-3.058-2.23-4.669c-0.341-0.705-0.669-1.429-1.04-2.144c-0.37-0.716-0.744-1.438-1.117-2.171
						c-0.744-1.466-1.509-2.959-2.284-4.479c-1.637-3.004-3.28-6.126-5.087-9.226c-0.899-1.55-1.75-3.143-2.705-4.686
						c-0.943-1.545-1.895-3.099-2.842-4.651c-0.927-1.568-1.955-3.072-2.922-4.605c-0.492-0.76-0.976-1.522-1.469-2.279
						c-0.493-0.755-1.02-1.484-1.526-2.225c-1.011-1.471-2.021-2.941-3.012-4.385c-1.038-1.415-2.063-2.812-3.074-4.183
						c-0.512-0.683-0.992-1.386-1.515-2.035c-0.516-0.66-1.035-1.309-1.543-1.956c-1.016-1.283-1.979-2.572-2.982-3.776
						c-1.009-1.193-1.997-2.352-2.952-3.469c-0.471-0.563-0.936-1.119-1.398-1.663c-0.478-0.524-0.953-1.034-1.411-1.536
						c-0.928-1.011-1.811-1.973-2.65-2.89c-0.411-0.476-0.837-0.906-1.258-1.319c-0.417-0.416-0.822-0.82-1.214-1.214
						c-1.586-1.552-2.897-2.986-4.119-4.03c-1.195-1.069-2.113-1.939-2.745-2.52c-0.552-0.509-0.877-0.813-0.953-0.881
						c0.083,0.058,0.447,0.317,1.054,0.759c0.691,0.512,1.721,1.241,3.007,2.198c1.311,0.919,2.782,2.207,4.498,3.661
						c0.433,0.361,0.874,0.735,1.33,1.125c0.457,0.383,0.925,0.786,1.371,1.221c0.913,0.873,1.873,1.783,2.87,2.739
						c0.498,0.479,1.011,0.968,1.53,1.464c0.496,0.52,1.003,1.051,1.519,1.587c1.019,1.089,2.074,2.206,3.156,3.366
						c1.068,1.168,2.102,2.426,3.194,3.681c1.093,1.257,2.185,2.554,3.228,3.937c1.062,1.361,2.139,2.75,3.235,4.154
						c1.053,1.432,2.093,2.897,3.137,4.38c0.518,0.744,1.061,1.481,1.565,2.239c0.503,0.764,1.005,1.528,1.513,2.294
						c0.99,1.543,2.045,3.058,2.999,4.636c0.948,1.576,1.896,3.158,2.839,4.735c0.949,1.564,1.796,3.187,2.689,4.764
						c0.445,0.789,0.884,1.578,1.317,2.363c0.44,0.783,0.821,1.594,1.231,2.381c0.799,1.584,1.59,3.155,2.373,4.693
						c0.745,1.555,1.467,3.088,2.156,4.597c0.345,0.758,0.692,1.504,1.028,2.242c0.335,0.738,0.635,1.48,0.945,2.208
						c0.182,0.431,0.359,0.856,0.539,1.273C233.751,745.478,234.145,747.634,234.47,749.409z"/>
				</g>
				<g>
					<path style="fill:#698E38;" d="M221.007,488.059l0.691-3.099c0.018-0.027,0.035-0.057,0.058-0.09
						c11.405-19.5,104.953-130.226,32.018-138.093c-58.808-6.346-41.953,93.801-34.381,133.057
						C220.01,482.999,220.557,485.775,221.007,488.059z"/>
					<path style="fill:#475E23;" d="M221.007,488.059l0.691-3.099c0.018-0.027,0.035-0.057,0.058-0.09
						c0.142-2.139,0.313-4.367,0.468-6.666c0.08-1.008,0.129-2.034,0.235-3.068c0.106-1.033,0.215-2.078,0.315-3.136
						c0.201-2.113,0.41-4.268,0.623-6.46c0.544-4.382,1.038-8.909,1.741-13.488c0.348-2.287,0.614-4.604,1.031-6.908
						c0.402-2.305,0.81-4.621,1.214-6.934c0.37-2.319,0.893-4.611,1.33-6.912c0.229-1.149,0.451-2.292,0.685-3.432
						c0.234-1.142,0.522-2.267,0.78-3.398c0.517-2.244,1.034-4.486,1.543-6.689c0.577-2.194,1.146-4.356,1.711-6.481
						c0.292-1.064,0.536-2.132,0.859-3.16c0.307-1.039,0.623-2.064,0.925-3.081c0.615-2.023,1.16-4.027,1.794-5.946
						c0.649-1.91,1.287-3.772,1.904-5.564c0.298-0.9,0.594-1.788,0.893-2.66c0.324-0.853,0.654-1.692,0.967-2.513
						c0.635-1.652,1.242-3.226,1.815-4.725c0.268-0.764,0.576-1.483,0.887-2.178c0.303-0.697,0.6-1.374,0.883-2.034
						c1.169-2.613,2.067-4.957,3.04-6.789c0.927-1.848,1.62-3.328,2.104-4.325c0.423-0.872,0.668-1.393,0.728-1.509
						c-0.074,0.109-0.387,0.592-0.907,1.409c-0.59,0.942-1.479,2.306-2.571,4.064c-1.14,1.725-2.297,3.968-3.67,6.525
						c-0.348,0.639-0.702,1.298-1.066,1.981c-0.368,0.678-0.739,1.382-1.071,2.115c-0.682,1.481-1.4,3.028-2.148,4.647
						c-0.371,0.813-0.757,1.644-1.144,2.484c-0.351,0.86-0.71,1.735-1.076,2.624c-0.708,1.79-1.446,3.633-2.196,5.538
						c-0.728,1.909-1.377,3.908-2.094,5.934c-0.718,2.024-1.415,4.1-2.015,6.254c-0.63,2.138-1.268,4.318-1.917,6.521
						c-0.587,2.217-1.143,4.47-1.695,6.743c-0.27,1.139-0.575,2.282-0.82,3.432c-0.241,1.155-0.482,2.311-0.731,3.471
						c-0.459,2.322-1.008,4.641-1.409,6.988c-0.392,2.343-0.779,4.69-1.168,7.03c-0.4,2.328-0.647,4.677-0.975,6.995
						c-0.16,1.158-0.316,2.311-0.462,3.461c-0.159,1.147-0.234,2.303-0.351,3.443c-0.21,2.28-0.418,4.539-0.63,6.76
						c-0.16,2.221-0.3,4.404-0.414,6.542c-0.056,1.072-0.118,2.133-0.172,3.178c-0.055,1.046-0.063,2.081-0.09,3.1
						c-0.014,0.604-0.029,1.198-0.046,1.785C220.01,482.999,220.557,485.775,221.007,488.059z"/>
				</g>
				<g>
					<path style="fill:#698E38;" d="M228.18,566.98l-2.491-2.989c-0.035-0.021-0.07-0.043-0.115-0.065
						c-23.347-14.838-187.267-82.954-112.266-132.403c60.471-39.874,98.256,78.61,112.018,125.595
						C226.428,560.909,227.388,564.237,228.18,566.98z"/>
					<path style="fill:#475E23;" d="M228.18,566.98l-2.491-2.989c-0.035-0.021-0.07-0.043-0.115-0.065
						c-1.351-2.25-2.788-4.579-4.245-6.995c-0.651-1.053-1.28-2.141-1.974-3.208c-0.696-1.065-1.399-2.142-2.101-3.238
						c-1.404-2.188-2.841-4.417-4.301-6.686c-3.048-4.466-6.126-9.116-9.457-13.708c-1.661-2.295-3.251-4.668-4.994-6.944
						c-1.728-2.283-3.473-4.576-5.207-6.87c-1.704-2.319-3.558-4.52-5.324-6.78c-0.893-1.122-1.776-2.242-2.67-3.354
						c-0.894-1.112-1.838-2.173-2.752-3.26c-1.821-2.152-3.641-4.306-5.43-6.42c-1.857-2.065-3.689-4.099-5.497-6.095
						c-0.913-0.995-1.779-2.021-2.706-2.961c-0.916-0.958-1.835-1.899-2.736-2.835c-1.801-1.857-3.518-3.734-5.285-5.469
						c-1.779-1.717-3.514-3.384-5.191-4.991c-0.829-0.812-1.649-1.613-2.463-2.395c-0.833-0.747-1.662-1.477-2.462-2.194
						c-1.619-1.445-3.16-2.818-4.625-4.13c-0.721-0.682-1.458-1.291-2.187-1.873c-0.72-0.59-1.423-1.161-2.1-1.72
						c-2.739-2.19-5.028-4.238-7.117-5.688c-2.047-1.493-3.63-2.713-4.716-3.53c-0.948-0.713-1.507-1.141-1.638-1.235
						c0.141,0.077,0.753,0.426,1.776,1.026c1.171,0.694,2.905,1.681,5.079,2.982c2.207,1.241,4.724,3.034,7.653,5.048
						c0.738,0.5,1.491,1.02,2.271,1.559c0.78,0.532,1.577,1.091,2.35,1.704c1.574,1.23,3.225,2.511,4.945,3.855
						c0.859,0.676,1.744,1.364,2.639,2.062c0.863,0.74,1.743,1.491,2.641,2.255c1.775,1.55,3.609,3.144,5.495,4.797
						c1.865,1.669,3.688,3.482,5.606,5.286c1.917,1.802,3.838,3.671,5.7,5.681c1.884,1.974,3.8,3.99,5.741,6.025
						c1.883,2.086,3.752,4.225,5.626,6.392c0.932,1.089,1.903,2.161,2.815,3.275c0.911,1.124,1.822,2.246,2.743,3.37
						c1.801,2.271,3.699,4.487,5.449,6.819c1.742,2.33,3.48,4.669,5.213,6.999c1.741,2.311,3.327,4.729,4.985,7.071
						c0.822,1.171,1.638,2.34,2.443,3.508c0.816,1.161,1.544,2.377,2.312,3.553c1.509,2.364,2.999,4.708,4.476,7.006
						c1.418,2.328,2.793,4.626,4.117,6.891c0.661,1.136,1.323,2.255,1.969,3.363c0.645,1.108,1.234,2.229,1.834,3.324
						c0.356,0.649,0.702,1.287,1.051,1.917C226.428,560.909,227.388,564.237,228.18,566.98z"/>
				</g>
				<g>
					<polygon style="fill:#5E3A29;" points="299.662,749.536 281.434,906.334 199.611,906.334 197.75,890.366 181.374,749.536 					
						"/>
					<path style="fill:#8C5F46;" d="M274.878,749.536c-0.834,67.455-33.264,123.945-77.128,140.83l-16.376-140.83H274.878z"/>
				</g>
			</g>
		</g>
	</g>
</g>
</svg>
